<?xml version="1.0" standalone="no"?>
<!DOCTYPE svg PUBLIC "-//W3C//DTD SVG 1.1//EN" "http://www.w3.org/Graphics/SVG/1.1/DTD/svg11.dtd" >
<svg>
<metadata>
Created by FontForge 20090914 at Thu Feb 23 20:54:59 2012
 By root
Copyright (c) Typographer Mediengestaltung, 2002. All rights reserved.
</metadata>
<defs>
<font id="Iglesia-Light" horiz-adv-x="498" >
  <font-face 
    font-family="Iglesia"
    font-weight="300"
    font-stretch="normal"
    units-per-em="1000"
    panose-1="0 0 0 0 0 0 0 0 0 0"
    ascent="800"
    descent="-200"
    x-height="470"
    cap-height="646"
    bbox="-164 -235 1415 919"
    underline-thickness="73"
    underline-position="-75"
    stemh="81"
    stemv="90"
    unicode-range="U+0020-U+FB02"
  />
<missing-glyph horiz-adv-x="500" 
d="M63 0v919h375v-919h-375zM125 63h250v794h-250v-794z" />
    <glyph glyph-name=".notdef" horiz-adv-x="500" 
d="M63 0v919h375v-919h-375zM125 63h250v794h-250v-794z" />
    <glyph glyph-name=".notdef" horiz-adv-x="500" 
d="M63 0v919h375v-919h-375zM125 63h250v794h-250v-794z" />
    <glyph glyph-name="breve" unicode="&#x2d8;" 
d="M128 685c9 -28 24 -47 45 -57c16 -7 40 -11 73 -11s57 4 73 11c21 10 36 29 45 57h22c-8 -80 -61 -130 -140 -130s-132 50 -140 130h22z" />
    <glyph glyph-name="dotaccent" unicode="&#x2d9;" 
d="M250 557c-28 0 -52 23 -52 51c0 29 24 53 52 53s52 -24 52 -53c0 -28 -24 -51 -52 -51z" />
    <glyph glyph-name="caron" unicode="&#x2c7;" 
d="M108 703h28l114 -104l112 104h28l-112 -168h-58z" />
    <glyph glyph-name="dotlessi" unicode="&#x131;" horiz-adv-x="207" 
d="M144 371v-267c0 -17 8 -30 24 -39l16 15l15 -16l-90 -75c-40 21 -60 57 -60 110v272l-28 33l74 66l75 -71z" />
    <glyph glyph-name="fraction" unicode="&#x2044;" horiz-adv-x="166" 
d="M330 701l-450 -712h-44l450 712h44z" />
    <glyph glyph-name="fraction" unicode="&#x2215;" horiz-adv-x="166" 
d="M330 701l-450 -712h-44l450 712h44z" />
    <glyph glyph-name="fi" unicode="&#xfb01;" horiz-adv-x="414" 
d="M335 617h59l-73 -109h-8zM257 89v7v275l-27 31v-3h-63v-288l66 -45zM300 467l2 3l75 -70l-25 -30v-270c0 -13 8 -25 24 -34l16 14l15 -15l-88 -76c-33 13 -52 38 -59 75l-78 -75c-33 32 -78 58 -137 78c19 15 28 40 28 76v256h-50l8 53h42v104c29 14 64 38 103 72l92 -23
l-20 -72l-81 20v-101z" />
    <glyph glyph-name="fl" unicode="&#xfb02;" horiz-adv-x="459" 
d="M167 553v-101h72l-9 -53h-63v-288l66 -45l1 1l-4 1c19 18 28 44 28 77v382zM288 580h13c29 33 61 49 95 50v-4c-29 -23 -44 -56 -44 -97v-416l65 -45l23 21l15 -13l-88 -85c-31 30 -68 53 -111 69l-74 -71c-33 32 -78 58 -137 78c19 15 28 40 28 76v256h-50l8 53h42v104
c29 14 64 38 103 72l92 -23v4c4 -7 11 -17 20 -29z" />
    <glyph glyph-name="Lslash" unicode="&#x141;" horiz-adv-x="578" 
d="M286 194l-58 -33c-12 -28 -33 -63 -62 -105c59 43 99 89 120 138zM63 65l-30 53l126 72c-13 19 -38 31 -76 38c14 15 30 22 48 22c6 0 18 -2 36 -7l1 18c-1 40 -36 66 -77 66c-11 0 -22 -2 -34 -6c12 31 36 47 73 47c15 0 26 -2 32 -7c0 13 -4 44 -4 56
c-1 56 26 112 81 167c-32 -19 -61 -29 -86 -28c-11 0 -26 3 -46 9c-19 6 -34 9 -44 10c-25 1 -45 -14 -61 -43l-7 7c14 70 52 105 114 105c15 0 36 -4 64 -12s49 -12 64 -12c21 -1 48 6 80 21l6 -7c-57 -47 -85 -98 -82 -155c3 -34 6 -96 10 -186c1 -17 0 -34 -2 -51l55 32
c1 11 1 23 0 35l-8 166c-3 59 11 103 41 130c29 25 73 38 133 38v-15c-62 -1 -92 -32 -89 -91c2 -29 5 -82 8 -158c1 -20 0 -39 -2 -57l77 44l30 -52l-128 -74c-3 -8 -7 -16 -12 -24c-21 -39 -59 -79 -115 -122c19 6 41 12 64 19c29 8 55 12 78 11c45 -1 80 -11 105 -28
s41 -26 48 -28c8 1 18 8 30 22l16 -13l-110 -104c-55 45 -116 68 -182 68c-66 -1 -139 -20 -220 -57l-7 12c56 43 90 85 102 127z" />
    <glyph glyph-name="lslash" unicode="&#x142;" horiz-adv-x="301" 
d="M32 175l-30 52l97 56v259c0 23 -12 44 -35 64l3 4c25 -5 46 -15 62 -32h13c30 33 62 49 95 50l1 -3c-30 -24 -45 -57 -45 -98v-190l68 39l30 -52l-98 -56v-157l65 -45l24 21l14 -13l-88 -85c-37 35 -82 61 -136 77c18 18 27 44 27 77v71z" />
    <glyph glyph-name="Zcaron" unicode="&#x17d;" horiz-adv-x="539" 
d="M26 533c40 44 72 81 95 111c67 -29 126 -44 176 -45c59 -1 123 12 193 37l6 -7c-37 -47 -75 -109 -113 -187l-27 -55h112l-14 -33h-116c-5 -11 -15 -27 -29 -46h123l-16 -33h-130c-35 -49 -92 -109 -171 -180l-57 -51c67 33 129 55 186 66c21 5 44 7 69 7
c51 0 100 -12 145 -35l34 36l17 -14l-99 -119c-77 36 -144 54 -203 54c-63 0 -135 -16 -217 -47l-7 8c37 42 70 90 101 144l77 131h-113l14 33h115l30 46h-122l13 33h132c55 71 125 140 209 209c-88 -48 -166 -72 -235 -71c-39 1 -82 9 -131 24l-32 -30zM401 880l16 -14
c-35 -39 -70 -91 -107 -154h-49c-31 57 -67 108 -107 154l15 14c48 -27 87 -60 117 -100c33 44 71 77 115 100z" />
    <glyph glyph-name="zcaron" unicode="&#x17e;" horiz-adv-x="292" 
d="M13 382l120 88c11 -11 29 -27 52 -48c24 -21 43 -33 58 -34v-7l-117 -119c37 -1 67 -9 89 -25c26 -19 39 -46 38 -82c-1 -57 -34 -102 -98 -136c-34 -18 -54 -29 -60 -34c-23 -17 -35 -34 -36 -53c0 -26 11 -40 34 -41c3 1 7 2 14 3c6 1 11 2 15 2c9 1 14 -4 15 -13
c-1 -13 -11 -20 -30 -21c-36 1 -66 33 -67 69c4 29 16 52 35 69c11 10 29 25 52 44c19 21 31 47 35 80c-1 45 -25 68 -72 68c-23 1 -48 -3 -73 -12l139 144l-78 77l-52 -36zM256 688l15 -15c-35 -39 -70 -90 -107 -152h-48c-29 53 -65 103 -107 152l15 15
c47 -27 86 -60 116 -100c33 44 72 77 116 100z" />
    <glyph glyph-name="space" unicode=" " horiz-adv-x="309" 
 />
    <glyph glyph-name="space" unicode="&#xa0;" horiz-adv-x="309" 
 />
    <glyph glyph-name="exclam" unicode="!" horiz-adv-x="230" 
d="M35 556l76 87l75 -86c-39 -121 -60 -245 -64 -374h-22c-1 124 -23 248 -65 373zM112 145c19 -24 44 -51 74 -82l-83 -74c-27 21 -51 46 -74 77z" />
    <glyph glyph-name="quotedbl" unicode="&#x22;" horiz-adv-x="334" 
d="M86 708c29 0 43 -16 42 -48c-1 -19 -6 -62 -17 -130l-18 -113h-16c-12 64 -24 145 -35 243c-1 12 2 23 11 34c8 9 19 14 33 14zM204 660c0 28 17 48 44 48c29 0 43 -16 42 -48c-1 -19 -6 -62 -17 -130l-18 -113h-16c-11 54 -22 135 -35 243z" />
    <glyph glyph-name="numbersign" unicode="#" horiz-adv-x="765" 
d="M128 484h163l79 223h74l-79 -223h136l79 223h74l-79 -223h147l-24 -67h-147l-47 -133h157l-25 -68h-156l-78 -218h-74l79 218h-137l-78 -218h-75l79 218h-153l24 68h152l48 133h-163zM340 417l-48 -134h139l48 134h-139z" />
    <glyph glyph-name="dollar" unicode="$" horiz-adv-x="461" 
d="M204 666h47v-66l135 -30l-32 -74l-103 23v-180c29 13 66 34 109 63c50 -39 74 -93 73 -161c-1 -53 -19 -102 -56 -148c-33 -43 -75 -75 -126 -97v-99h-47v106l-183 44l31 76l152 -38v206c-39 -22 -71 -42 -95 -61c-52 40 -87 109 -86 174c1 54 18 100 51 137
s77 58 130 63v62zM204 528l-90 19c-17 -21 -25 -47 -24 -78c1 -34 8 -66 22 -97c18 -39 42 -59 72 -59c5 0 16 3 20 3v212zM251 312v-239l56 -12c33 36 49 84 48 145c-1 27 -6 51 -15 72c-13 28 -31 42 -56 41c-12 0 -23 -2 -33 -7z" />
    <glyph glyph-name="percent" unicode="%" horiz-adv-x="708" 
d="M29 413c1 73 47 138 137 195c95 -44 143 -101 143 -171c0 -79 -44 -148 -133 -206c-45 13 -80 35 -106 66c-28 33 -42 71 -41 116zM256 405c-3 73 -56 131 -131 140c-28 -27 -42 -58 -42 -91c0 -40 12 -75 37 -105s58 -49 97 -56c27 33 40 70 39 112zM504 608h52
l-355 -618h-53zM587 49c27 34 40 70 39 108c-1 72 -58 130 -131 139c-28 -27 -42 -58 -42 -91c1 -80 55 -141 134 -156zM546 -10c-45 12 -80 32 -106 61c-28 31 -42 69 -41 113c1 73 47 138 137 195c95 -44 143 -101 143 -171c0 -76 -44 -142 -133 -198z" />
    <glyph glyph-name="ampersand" unicode="&#x26;" horiz-adv-x="699" 
d="M134 495c0 11 5 22 16 33c7 10 41 30 101 60l111 56c50 -30 75 -67 75 -112c0 -33 -13 -65 -38 -95c-16 -19 -42 -42 -79 -69l91 -162l117 97c27 -24 54 -36 79 -36c5 0 18 2 23 2l5 -3c-26 -41 -55 -61 -87 -60c-24 0 -46 9 -66 27l-59 -45c39 -73 81 -108 128 -107
c29 1 53 12 74 34l7 -5c-15 -68 -66 -110 -135 -110c-61 0 -112 42 -154 125l-176 -141l-126 194l186 147c-63 103 -94 160 -93 170zM294 575c-28 0 -52 -26 -53 -54c2 -13 11 -34 27 -63l40 -71c41 27 62 60 61 99c0 23 -7 43 -20 60c-15 19 -33 28 -55 29zM239 306
l-99 -77l100 -158l91 75z" />
    <glyph glyph-name="quotesingle" unicode="'" horiz-adv-x="172" 
d="M42 659c-1 33 13 49 43 49c31 0 46 -16 44 -49c-1 -31 -7 -71 -16 -121c-10 -57 -16 -98 -18 -121h-17c-2 23 -8 63 -19 121c-9 51 -15 92 -17 121z" />
    <glyph glyph-name="parenleft" unicode="(" horiz-adv-x="330" 
d="M293 771l13 -12c-43 -58 -77 -123 -102 -195c-26 -75 -39 -147 -39 -216c1 -140 41 -258 119 -353l23 25l15 -15l-94 -131c-95 106 -142 238 -141 395c1 91 19 181 56 270s87 167 150 232z" />
    <glyph glyph-name="parenright" unicode=")" horiz-adv-x="330" 
d="M37 -126l-13 12c43 58 78 122 103 193c26 74 39 146 38 216c-1 139 -40 257 -119 355l-23 -26l-15 14l94 133c95 -106 142 -238 141 -396c-1 -91 -19 -181 -56 -269s-87 -165 -150 -232z" />
    <glyph glyph-name="asterisk" unicode="*" horiz-adv-x="429" 
d="M301 568c-33 -9 -62 -26 -87 -51c9 -1 19 -2 29 -2c26 0 49 4 70 13l41 -62l-66 -29c-18 28 -42 48 -73 61c11 -42 24 -72 37 -90l-50 -54l-46 61c19 18 34 47 45 87c-33 -13 -59 -34 -78 -64l-67 26l38 64c19 -6 35 -10 49 -11s29 0 44 3c-22 25 -50 42 -83 49l6 76
l71 -18c-1 -38 6 -69 21 -93c15 21 22 52 21 91l72 17z" />
    <glyph glyph-name="plus" unicode="+" horiz-adv-x="830" 
d="M124 329h257v262h68v-262h257v-67h-257v-262h-68v262h-257v67z" />
    <glyph glyph-name="comma" unicode="," horiz-adv-x="230" 
d="M31 70l77 75c19 -23 44 -47 73 -71c-21 -62 -64 -114 -131 -157l-20 21c31 27 46 49 46 64c1 19 -14 41 -45 68z" />
    <glyph glyph-name="hyphen" unicode="-" horiz-adv-x="309" 
d="M241 192h-186l-10 -27h-18l39 108h184l13 34h17z" />
    <glyph glyph-name="hyphen" unicode="&#xad;" horiz-adv-x="309" 
d="M241 192h-186l-10 -27h-18l39 108h184l13 34h17z" />
    <glyph glyph-name="period" unicode="." horiz-adv-x="230" 
d="M115 145c22 -29 47 -56 74 -82l-82 -74c-28 21 -53 47 -75 77z" />
    <glyph glyph-name="slash" unicode="/" horiz-adv-x="308" 
d="M229 643h54l-254 -735h-50z" />
    <glyph glyph-name="zero" unicode="0" horiz-adv-x="461" 
d="M225 604c137 -59 206 -157 206 -294c0 -71 -17 -133 -50 -186c-29 -47 -76 -91 -139 -134c-67 13 -119 47 -158 100c-37 51 -55 111 -55 181c0 137 65 248 196 333zM160 522c-43 -51 -64 -109 -64 -174c0 -68 18 -127 54 -177c37 -53 88 -87 152 -103
c43 51 64 113 63 187c-1 67 -19 124 -54 172c-37 51 -87 82 -151 95z" />
    <glyph glyph-name="one" unicode="1" horiz-adv-x="304" 
d="M10 517l108 88c50 -34 75 -68 75 -101v-402l38 -33l36 35l16 -14l-108 -98l-102 77c17 16 26 30 26 42v361c0 21 -13 41 -39 62l-37 -33z" />
    <glyph glyph-name="two" unicode="2" horiz-adv-x="461" 
d="M189 604l211 -131c0 -7 1 -23 1 -30c0 -69 -19 -121 -56 -157c-19 -19 -43 -36 -70 -53c-29 -17 -80 -49 -152 -97c-21 -15 -40 -38 -59 -67c63 27 128 41 195 42c58 1 108 -11 149 -35l-70 -85c-55 23 -110 34 -163 34c-59 0 -117 -12 -173 -35c10 59 43 116 98 169
l133 123c43 43 66 90 67 142c1 38 -17 75 -54 110l-166 -132l-63 62z" />
    <glyph glyph-name="three" unicode="3" horiz-adv-x="461" 
d="M41 499l140 105l199 -103c0 -5 3 -23 3 -30c-3 -74 -43 -126 -122 -155c97 -26 144 -77 142 -152c-1 -55 -30 -98 -87 -131c-46 -26 -99 -40 -159 -43l-157 132l67 66l189 -161c32 35 48 77 48 125c1 48 -14 85 -44 112c-28 25 -66 39 -114 40c-7 0 -24 -1 -31 -1v23
c100 1 167 58 167 157c0 13 -3 26 -9 37c-7 13 -16 20 -29 20c-7 1 -56 -33 -148 -102z" />
    <glyph glyph-name="four" unicode="4" horiz-adv-x="461" 
d="M259 606c48 -25 72 -58 72 -99v-243h84l21 -74h-105v-95l38 -30l28 24l12 -14l-93 -85l-107 68c11 11 23 28 34 49v83h-199l-27 82zM221 509l-177 -238l5 -7h193v212c0 13 -7 24 -21 33z" />
    <glyph glyph-name="five" unicode="5" horiz-adv-x="461" 
d="M108 592h263l-27 -87h-224l-29 -195l170 113c91 -29 142 -103 143 -198c1 -63 -20 -115 -61 -158c-38 -39 -89 -65 -152 -77l-171 105l58 66l197 -120c43 42 64 86 63 133c-1 84 -50 142 -146 173l-135 -92z" />
    <glyph glyph-name="six" unicode="6" horiz-adv-x="461" 
d="M246 604l156 -80l-61 -74l-144 74c-24 -25 -43 -57 -57 -95c-13 -37 -20 -74 -20 -111v-47l192 132c79 -32 118 -85 117 -159c-1 -91 -64 -175 -189 -254c-124 33 -205 132 -205 260c1 140 72 258 211 354zM243 319c-11 1 -51 -23 -119 -70c20 -99 78 -159 173 -180
c41 25 61 63 60 113c-1 33 -11 64 -32 91c-22 30 -49 45 -82 46z" />
    <glyph glyph-name="seven" unicode="7" horiz-adv-x="390" 
d="M13 442c27 47 52 97 75 150h319v-23c-87 -103 -147 -206 -178 -309c-21 -69 -33 -143 -36 -224l-116 -42c5 87 32 179 81 276c46 89 102 167 169 235h-209c-29 -13 -59 -36 -90 -69z" />
    <glyph glyph-name="eight" unicode="8" horiz-adv-x="461" 
d="M188 604c53 -3 97 -13 132 -30c49 -24 73 -58 74 -103c1 -46 -29 -85 -90 -117c74 -24 111 -70 110 -138c0 -85 -60 -160 -179 -226h-37c-43 0 -81 13 -114 39c-34 29 -52 64 -55 107c1 55 34 105 98 149c-55 16 -83 51 -82 104c0 65 48 137 143 215zM132 521
c-21 -30 -31 -56 -31 -79c1 -32 24 -54 71 -66l113 -17c33 23 50 47 51 71c1 53 -67 83 -204 91zM149 282c-39 -33 -58 -66 -57 -99c1 -35 19 -62 56 -81c30 -16 64 -24 102 -24c33 0 60 6 83 17c30 15 44 38 43 68c-2 59 -78 99 -227 119z" />
    <glyph glyph-name="nine" unicode="9" horiz-adv-x="461" 
d="M214 -10l-156 77l61 76l144 -76c51 57 76 125 76 206v47l-191 -132c-79 33 -119 88 -118 163c1 87 64 171 189 253c63 -17 112 -49 149 -95c38 -47 57 -103 57 -167c-1 -139 -72 -257 -211 -352zM217 272c10 0 49 24 118 72c-20 99 -78 158 -173 177
c-41 -25 -60 -62 -59 -110c1 -33 11 -64 32 -92c22 -30 49 -46 82 -47z" />
    <glyph glyph-name="colon" unicode=":" horiz-adv-x="254" 
d="M115 442c22 -29 47 -56 74 -82l-82 -75c-29 25 -54 51 -75 80zM115 145c22 -29 47 -56 74 -82l-82 -74c-28 21 -53 47 -75 77z" />
    <glyph glyph-name="semicolon" unicode=";" horiz-adv-x="254" 
d="M120 145c25 -29 50 -53 73 -71c-14 -57 -58 -110 -132 -157l-19 21c30 28 45 50 45 65c-1 16 -15 39 -44 68zM127 443c23 -27 47 -54 73 -81l-82 -76c-31 26 -56 53 -74 81z" />
    <glyph glyph-name="semicolon" unicode="&#x37e;" horiz-adv-x="254" 
d="M120 145c25 -29 50 -53 73 -71c-14 -57 -58 -110 -132 -157l-19 21c30 28 45 50 45 65c-1 16 -15 39 -44 68zM127 443c23 -27 47 -54 73 -81l-82 -76c-31 26 -56 53 -74 81z" />
    <glyph glyph-name="less" unicode="&#x3c;" horiz-adv-x="830" 
d="M129 327l571 235v-76l-471 -192l471 -190v-76l-571 237v62z" />
    <glyph glyph-name="equal" unicode="=" horiz-adv-x="830" 
d="M706 231v-66h-582v66h582zM124 424h582v-67h-582v67z" />
    <glyph glyph-name="greater" unicode="&#x3e;" horiz-adv-x="830" 
d="M701 327v-62l-572 -237v75l472 191l-472 193v75z" />
    <glyph glyph-name="question" unicode="?" horiz-adv-x="346" 
d="M105 555c-15 0 -45 -10 -92 -30l56 115c20 3 36 4 48 4c43 -1 79 -13 108 -37c31 -25 46 -59 47 -100c0 -25 -6 -49 -19 -71c-21 -30 -50 -77 -86 -142c-13 -30 -21 -68 -24 -114h-24l-2 36c-2 37 7 86 28 149l20 62c6 19 9 36 10 50c0 23 -6 41 -17 55
c-13 15 -30 22 -53 23zM48 67l83 78c25 -33 49 -60 73 -82l-82 -74c-31 24 -56 50 -74 78z" />
    <glyph glyph-name="at" unicode="@" horiz-adv-x="982" 
d="M69 256c1 131 49 239 144 324c92 81 205 123 338 124c103 1 188 -28 256 -87c71 -61 106 -142 106 -243c0 -75 -20 -144 -59 -207c-45 -72 -104 -108 -176 -109c-35 -1 -62 11 -79 35c-15 20 -22 43 -22 70c-38 -71 -88 -105 -150 -104c-44 1 -79 18 -104 51
c-23 31 -34 69 -33 114c1 63 25 122 71 176c49 57 104 86 167 87c59 1 95 -30 108 -93l26 85h75c-5 -21 -12 -47 -22 -78l-25 -78c-30 -105 -45 -168 -45 -189c1 -35 15 -52 42 -52c37 -1 78 23 125 72c49 51 75 126 76 224c1 94 -32 169 -100 224c-63 52 -143 78 -238 77
c-123 -1 -223 -43 -302 -126c-78 -81 -117 -183 -118 -306c-1 -103 29 -184 90 -243c81 -76 180 -114 298 -114c113 0 215 34 305 101l17 -20c-99 -73 -209 -109 -330 -107c-125 1 -228 36 -309 103c-89 71 -133 168 -132 289zM538 464c-25 1 -46 -8 -63 -26
c-28 -29 -53 -69 -74 -122c-21 -52 -31 -99 -32 -140c0 -23 5 -44 16 -62c13 -21 30 -31 53 -31c51 6 93 43 128 110c30 57 45 115 46 172c0 25 -6 47 -17 66c-14 21 -33 32 -57 33z" />
    <glyph glyph-name="A" unicode="A" horiz-adv-x="599" 
d="M291 644c57 1 118 -22 183 -68c33 40 70 64 113 71l2 -2c-31 -29 -50 -52 -59 -69c-11 -22 -17 -51 -16 -88l7 -345c0 -29 9 -54 26 -73l34 25l14 -19l-114 -93c-6 5 -15 11 -27 20c-26 26 -40 56 -43 89l-146 -109c-109 61 -168 90 -178 88c-19 -1 -28 -9 -28 -26
c0 -9 10 -32 10 -43c1 -10 -7 -16 -24 -17c-17 1 -25 9 -25 26c-2 17 15 53 52 110c7 11 32 45 73 103c-72 63 -108 126 -108 190c0 67 26 122 78 166c49 41 107 63 176 64zM358 538c-33 17 -68 25 -104 25c-49 -1 -92 -17 -127 -48c-37 -33 -56 -73 -57 -122
c-1 -57 28 -107 86 -149l131 190c-9 15 -23 23 -42 23c-34 0 -60 -16 -77 -49c1 65 46 104 111 105c19 0 37 -4 55 -11zM380 517l-169 -243h197l-4 217l-18 26h-6zM166 205l-38 -53l202 -90l81 64l-1 79h-244z" />
    <glyph glyph-name="B" unicode="B" horiz-adv-x="712" 
d="M16 541c5 32 19 59 42 82c24 24 52 36 83 36c17 0 40 -5 71 -14s55 -13 71 -14c11 0 27 3 47 8l52 13l1 -3c-45 -23 -77 -49 -97 -78c-23 -33 -34 -73 -34 -120v-205c0 -62 -25 -123 -76 -184c36 18 66 44 90 79c25 36 37 73 37 112v192c0 59 16 105 49 136
c21 19 52 37 91 53c40 16 75 24 104 25c26 0 49 -11 68 -34c18 -22 28 -47 29 -74s-12 -58 -40 -93c-11 -14 -35 -40 -72 -77c87 -4 131 -37 131 -99v-191c-76 -13 -160 -48 -252 -106c-77 27 -140 41 -190 41c-31 0 -59 -4 -84 -11c-37 -10 -56 -27 -56 -52
c0 -12 11 -40 11 -52c0 -15 -8 -22 -23 -23c-19 1 -29 13 -29 34c0 27 20 63 60 110s60 82 61 107c1 18 -8 27 -26 27c-17 0 -36 -12 -55 -36l-4 22c0 41 28 69 83 82l2 18c0 40 -29 64 -69 64c-25 1 -48 -6 -71 -19c7 29 21 51 44 67c21 15 47 23 77 23c0 77 33 139 98 184
c-24 -8 -44 -12 -59 -11c-11 0 -28 4 -50 12c-21 8 -38 12 -50 12c-21 1 -43 -14 -65 -43zM260 103c36 7 66 10 89 10c24 1 52 -3 83 -10v355h20v-105c56 29 92 87 93 148c0 41 -26 76 -77 103c-49 -13 -74 -44 -74 -93v-216c0 -49 -12 -88 -35 -118
c-18 -23 -51 -48 -99 -74zM452 95l50 -19l51 23v65c-17 6 -33 9 -49 9c-19 0 -36 -2 -52 -7v-71zM452 257v-73c17 5 33 7 46 7s32 -2 55 -6v71c-21 -4 -37 -6 -48 -6c-15 0 -32 2 -53 7zM452 324v-48c23 -5 40 -8 53 -8c18 0 34 3 48 9v39c0 9 -6 18 -18 27
c-10 8 -20 13 -30 16c-18 -9 -36 -21 -53 -35z" />
    <glyph glyph-name="C" unicode="C" horiz-adv-x="588" 
d="M105 352c0 -73 19 -132 56 -177c8 13 12 26 12 38v266l193 164c60 -37 126 -56 197 -57l-88 -96c-45 19 -90 36 -137 51v-465c9 0 33 -3 42 -3c69 -1 135 30 197 91l8 -5c-57 -116 -147 -174 -270 -175c-86 -1 -157 27 -212 82c-55 56 -82 127 -83 213
c0 66 18 127 54 183c37 59 86 99 147 119l3 -3c-79 -62 -119 -137 -119 -226zM316 558l-42 -37v-193c0 -37 -9 -69 -28 -97c-13 -19 -36 -43 -71 -73c39 -41 86 -67 141 -77v477z" />
    <glyph glyph-name="D" unicode="D" horiz-adv-x="752" 
d="M27 674c14 -37 47 -56 99 -55c31 0 78 3 139 8c62 5 108 8 139 9c45 1 81 -2 108 -9c38 -9 69 -25 93 -50c65 -68 97 -184 97 -348v-83l-2 -52c-53 -21 -106 -56 -159 -105c-85 29 -166 44 -245 43c-85 -1 -172 -28 -260 -81l-9 12c31 21 72 48 124 79
c47 30 82 56 104 77c40 39 60 84 60 135v176c0 39 7 72 21 97c-55 -17 -82 -51 -82 -104v-152c0 -61 -22 -113 -67 -158c-35 -35 -86 -75 -153 -119l-7 6c66 55 99 108 100 159c0 41 -24 76 -65 76c-24 1 -44 -10 -61 -32c1 27 11 49 32 67c20 17 43 25 70 26
c9 0 33 -3 41 -3c1 48 15 93 43 136c27 41 62 73 105 96c-11 -1 -33 -1 -66 -2l-71 -2c-41 -1 -74 11 -99 38s-37 57 -36 90l1 25h6zM406 530v-156c24 -26 53 -39 86 -39c35 0 65 13 88 40c-1 47 -14 85 -40 112c-27 29 -64 43 -111 43h-23zM406 345v-130c31 21 63 31 95 32
c33 0 63 -9 90 -28c0 5 1 19 1 26c-1 16 -3 50 -8 103c-25 -23 -55 -34 -88 -34c-38 0 -68 10 -90 31zM363 530c-17 -27 -26 -56 -26 -89v-189c0 -47 -13 -87 -39 -120c22 3 35 4 39 4c11 0 36 -4 47 -4v398h-21zM406 186v-55c53 -2 115 -13 185 -33l1 89
c-21 25 -52 38 -92 39c-35 0 -67 -13 -94 -40z" />
    <glyph glyph-name="E" unicode="E" horiz-adv-x="588" 
d="M363 643c36 -22 70 -36 102 -43c27 -5 64 -8 112 -8l-136 -148h106l-50 -103l-157 1v-265l41 -4c67 1 132 31 197 91l6 -5c-59 -117 -148 -175 -267 -175c-87 0 -158 27 -213 81c-55 55 -83 126 -84 213c-1 66 17 127 54 184s86 97 147 120l3 -4
c-82 -60 -123 -136 -122 -228c1 -69 20 -127 59 -175c8 13 12 26 12 39v265zM274 522v-193c0 -36 -9 -68 -28 -97c-14 -21 -37 -45 -70 -73c35 -39 82 -66 141 -79v478zM339 538v-169l115 125z" />
    <glyph glyph-name="F" unicode="F" horiz-adv-x="641" 
d="M3 307c0 39 17 71 50 98c31 25 67 37 106 37h33v96c52 -1 99 8 141 27c29 14 70 41 121 81c34 -19 74 -28 120 -28c31 -1 62 7 95 22l6 -2c-17 -83 -64 -124 -141 -123c-38 1 -70 9 -97 25v-98h139l-30 -88h-109v-184c0 -71 -19 -127 -58 -166c-33 -27 -84 -54 -151 -81
c-69 -28 -124 -43 -166 -44c-13 1 -33 7 -58 16s-45 14 -59 15c-22 1 -38 -15 -48 -49h-8c0 39 8 71 23 96c18 29 46 43 83 44c30 -1 58 -10 83 -28c29 -21 49 -32 60 -35c17 1 31 16 42 45c8 22 12 43 12 64v307h-90c-40 0 -71 -16 -92 -47h-7zM286 516v-361
c0 -87 -33 -157 -100 -210c105 33 157 105 157 216v371c-23 -11 -42 -16 -57 -16z" />
    <glyph glyph-name="G" unicode="G" horiz-adv-x="666" 
d="M361 642c65 -37 126 -56 182 -56c5 0 16 1 34 3l26 2l3 -4l-144 -113c118 -30 176 -99 174 -206c-1 -83 -44 -152 -127 -209c-75 -50 -155 -75 -241 -75c-71 0 -129 22 -176 67c-47 46 -71 104 -71 174c0 86 35 166 106 239c21 21 39 38 54 51c31 23 72 53 124 88z
M282 557v-197l161 131zM178 119c44 -51 93 -81 148 -90v321c-15 -3 -29 -10 -44 -19v-91c2 -17 -12 -39 -41 -68c-1 -1 -22 -19 -63 -53zM348 28c77 -1 138 33 185 102c-27 16 -56 24 -85 23c-28 0 -61 -8 -100 -23v-102zM348 153c32 13 66 19 102 19c33 1 63 -7 90 -22
c12 22 17 46 16 71l-1 22c-39 -21 -75 -31 -110 -31c-26 0 -58 8 -97 23v-82zM182 182v289c-42 -43 -63 -101 -62 -172c1 -68 16 -121 47 -158c10 6 15 20 15 41zM348 359v-98c36 -19 69 -29 100 -30c33 0 67 12 103 36c-1 31 -17 57 -46 78c-26 18 -56 28 -89 29
c-22 1 -45 -4 -68 -15z" />
    <glyph glyph-name="H" unicode="H" horiz-adv-x="719" 
d="M16 540c6 31 20 59 42 82c24 24 52 36 83 36c16 0 39 -5 69 -14c31 -9 54 -13 70 -14c12 0 29 3 50 8l52 13l2 -4c-46 -23 -79 -48 -99 -77c-22 -31 -33 -70 -33 -119v-207c0 -64 -26 -125 -77 -182c85 43 128 107 128 192v197c0 113 71 181 213 204l2 -2
c-79 -41 -119 -92 -119 -153v-104l162 132c50 -35 83 -74 99 -119c11 -34 17 -87 16 -159c-1 -56 -12 -102 -33 -137c-17 -28 -38 -53 -64 -76c-14 -13 -40 -32 -79 -58c-21 -15 -31 -30 -32 -47c-1 -11 9 -16 28 -16c23 0 34 -6 33 -19c-1 -20 -13 -31 -36 -32
c-33 0 -58 24 -59 57c0 17 10 41 30 71c40 56 60 85 60 86c23 38 37 75 41 112c-29 13 -56 19 -81 18c-36 -1 -75 -12 -116 -33c-37 -20 -70 -44 -98 -72c9 0 32 1 41 1c35 -3 71 -6 108 -8c23 -1 46 10 69 34l14 -12l-92 -137c-50 30 -117 45 -201 44c-27 0 -53 -4 -77 -13
c-33 -11 -50 -27 -51 -50c1 -11 11 -39 11 -51c0 -15 -8 -23 -23 -24c-18 1 -27 13 -28 35c0 29 20 65 59 110c40 45 60 81 61 106c1 17 -8 26 -26 27c-17 0 -36 -12 -55 -36l-4 22c-1 41 27 68 83 81l1 25c1 16 -7 30 -22 42c-13 11 -28 16 -45 16c-23 1 -47 -6 -72 -20
c4 29 18 51 43 67c22 15 48 23 78 24c1 24 5 49 14 74c10 29 23 50 38 65l46 45c-24 -9 -44 -13 -59 -12c-11 0 -28 4 -50 12c-21 8 -38 12 -50 12c-21 1 -43 -14 -65 -43zM399 323v-108c28 9 56 14 84 14c24 0 52 -6 83 -17v112c-28 -11 -57 -16 -86 -15
c-20 0 -47 5 -81 14zM399 371v-27c19 -5 48 -11 85 -16c28 -1 55 5 80 17c0 47 -24 82 -71 105z" />
    <glyph glyph-name="I" unicode="I" horiz-adv-x="475" 
d="M131 390h20c1 76 30 143 88 202c-29 -15 -58 -22 -87 -22c-18 4 -45 8 -82 12c-22 0 -41 -15 -56 -45l-9 2c7 30 21 54 40 73c21 21 47 32 76 32c13 0 32 -2 57 -6s43 -6 55 -7c23 -1 51 4 83 15l4 -6c-55 -43 -82 -105 -81 -186c0 -30 4 -74 11 -132s11 -102 12 -131
c1 -65 -34 -98 -106 -99c42 -44 79 -67 111 -68c22 -1 38 7 47 22c9 12 13 30 12 53c-1 35 -6 92 -17 170c-11 84 -17 145 -18 182c-1 55 10 99 31 132c25 40 64 60 117 60v-10c-43 -10 -63 -35 -62 -74c1 -61 8 -122 19 -183c13 -68 19 -127 19 -176
c0 -58 -13 -107 -39 -147c-31 -47 -73 -69 -128 -68c-27 1 -60 8 -101 23c-42 15 -75 24 -98 25c-27 1 -50 -15 -69 -50l-6 1c1 36 11 66 30 89c22 26 51 39 86 39c7 0 22 -2 27 -2c27 -1 46 7 55 23c7 12 10 33 10 62c0 85 -27 126 -82 125c-23 0 -48 -5 -74 -16
c8 48 56 86 105 86z" />
    <glyph glyph-name="J" unicode="J" horiz-adv-x="505" 
d="M7 514c-1 39 17 70 54 95c31 22 67 34 108 36c33 -2 70 -8 113 -19c46 -11 81 -17 106 -18c33 -1 79 11 137 34l1 -16c-36 -33 -60 -65 -72 -98c-11 -29 -16 -69 -16 -121c0 -9 1 -36 2 -82c1 -23 1 -50 1 -81c0 -58 -7 -106 -20 -143c-15 -42 -42 -81 -80 -117
c-68 -65 -129 -99 -184 -102c-17 1 -41 7 -72 18s-54 16 -69 16c-20 1 -38 -16 -55 -50l-7 4c21 83 62 124 124 123c14 0 33 -3 56 -8c25 -6 44 -9 56 -10c37 1 56 19 55 54c-1 52 -18 94 -52 126c-31 29 -73 47 -126 54c18 19 41 28 69 28c22 0 46 -6 72 -17
c-1 38 -13 67 -38 87c-23 19 -54 28 -93 28c16 23 41 35 76 36c25 0 47 -5 64 -16c2 47 19 88 51 124c21 23 57 51 108 84c-49 -22 -90 -32 -123 -31c-20 1 -48 7 -83 18c-37 12 -65 19 -83 20c-39 -1 -59 -13 -58 -36c0 -11 3 -16 8 -17c3 0 9 1 17 3c7 1 12 2 17 2
c23 0 35 -11 35 -34c-1 -27 -15 -40 -42 -39c-17 0 -31 7 -42 20c-10 12 -15 27 -15 45zM456 590c-107 -53 -160 -126 -160 -221v-264c0 -88 -33 -145 -99 -170c101 11 151 77 151 196v219c0 51 9 95 26 132c16 34 43 70 82 108z" />
    <glyph glyph-name="K" unicode="K" horiz-adv-x="678" 
d="M283 603c-47 -31 -87 -47 -119 -46c-22 3 -43 4 -63 5c-37 1 -66 -17 -89 -54l-6 3c9 87 50 131 124 131c13 0 31 -3 56 -8s43 -8 55 -8c19 0 46 7 81 20l1 -10c-35 -63 -53 -123 -53 -178v-209c0 -41 -12 -72 -36 -95c-3 -3 -41 -36 -113 -100l7 -8c31 19 64 35 97 48
c61 39 91 86 91 140v211c0 64 20 131 59 201h21c-40 -69 -60 -144 -60 -223c49 31 102 76 158 135l105 -117c-48 -33 -102 -75 -162 -125c25 -11 46 -26 63 -44c23 -23 46 -55 69 -94c31 -51 51 -83 61 -97l25 24l15 -13l-99 -107c-33 32 -60 71 -79 116l-106 -118
c-25 11 -52 19 -83 26c-34 9 -62 13 -84 13c-41 0 -100 -13 -175 -40l-11 18c33 31 56 54 69 70c25 32 37 61 38 87c1 15 -3 28 -10 39c-8 13 -19 20 -34 20c-12 1 -26 -4 -41 -14c11 40 31 60 61 59c20 -1 40 -7 60 -18l1 22c1 25 -7 47 -23 67c-17 21 -37 31 -62 31
c-15 1 -34 -3 -56 -10c13 41 39 62 77 63c15 0 34 -6 57 -17c-1 81 37 149 113 204zM268 106c7 0 22 1 29 1c50 0 96 -10 138 -31l43 49c-43 78 -83 117 -122 117h-20c2 -53 -21 -99 -68 -136zM336 398v-127h13l141 117l-65 75c-22 -18 -52 -40 -89 -65z" />
    <glyph glyph-name="L" unicode="L" horiz-adv-x="578" 
d="M109 644c15 0 36 -4 64 -12s49 -12 64 -12c21 -1 48 6 80 21l6 -7c-57 -47 -85 -98 -82 -155c3 -34 6 -96 10 -186c1 -45 -6 -87 -21 -126c-11 -29 -32 -66 -64 -111c97 71 143 155 138 253l-8 166c-3 59 11 103 41 130c29 25 73 38 133 38v-15c-62 -1 -92 -32 -89 -91
c2 -29 5 -82 8 -158c2 -64 -10 -118 -35 -163c-21 -39 -59 -79 -115 -122c19 6 41 12 64 19c29 8 55 12 78 11c45 -1 80 -11 105 -28s41 -26 48 -28c8 1 18 8 30 22l16 -13l-110 -104c-55 45 -116 68 -182 68c-66 -1 -139 -20 -220 -57l-7 12c71 55 106 108 107 161
c0 38 -28 62 -85 71c14 15 30 22 48 22c6 0 18 -2 36 -7l1 18c-1 40 -36 66 -77 66c-11 0 -22 -2 -34 -6c12 31 36 47 73 47c15 0 26 -2 32 -7c0 13 -4 44 -4 56c-1 56 26 112 81 167c-32 -19 -61 -29 -86 -28c-11 0 -26 3 -46 9c-19 6 -34 9 -44 10c-25 1 -45 -14 -61 -43
l-7 7c14 70 52 105 114 105z" />
    <glyph glyph-name="M" unicode="M" horiz-adv-x="862" 
d="M190 508c18 19 53 43 105 72l126 66c46 -26 72 -62 78 -109l163 107l103 -70l38 29l14 -12c-27 -31 -40 -61 -40 -90v-368c0 -42 8 -63 23 -63c5 1 12 6 21 15l16 -14l-91 -85c-49 17 -74 59 -74 127v410l-68 52l-19 -11v-204h53l-53 -73v-170l23 17l14 -14l-151 -133
c-36 40 -70 70 -101 91v9c17 13 25 25 25 36v165h-108v-203c0 -77 -55 -137 -131 -142c-35 7 -71 11 -106 14c-31 2 -54 -13 -69 -44l-7 1c1 75 28 111 103 120c35 5 60 13 75 22c21 14 31 37 31 68s-10 59 -29 84c-21 25 -47 38 -78 39c-20 0 -39 -4 -57 -11
c11 61 46 91 107 91c0 75 21 136 64 181zM284 542c-39 -28 -58 -65 -58 -111v-288c0 -51 -19 -85 -56 -103c13 -5 25 -7 35 -7c40 0 60 24 60 71v369c0 21 6 44 19 69zM336 571c-33 -31 -49 -67 -49 -107v-158l38 54h70v175c0 22 -20 34 -59 36zM498 505v-145h65v187z
M498 110c0 -19 12 -31 35 -37l30 25v190h-65v-178z" />
    <glyph glyph-name="N" unicode="N" horiz-adv-x="708" 
d="M438 643c143 -41 216 -118 217 -233c1 -89 -49 -197 -150 -322c25 8 50 12 75 12c15 0 43 -4 82 -13l17 24l19 -10l-68 -116c-29 10 -59 15 -90 15c-53 0 -93 -23 -122 -70l-8 8c5 39 21 88 50 148c22 45 44 93 67 146c-25 25 -53 37 -85 37c-24 -1 -54 -12 -91 -35v-110
c0 -51 -17 -96 -50 -135c-35 -43 -78 -64 -128 -63c-26 0 -55 6 -88 17c-29 10 -52 15 -69 16c-18 1 -39 -5 -63 -17l-3 4c31 51 71 77 120 76c10 0 25 -1 46 -3s36 -3 47 -3c45 0 68 20 67 60c-1 28 -13 50 -36 65c-20 14 -45 21 -75 21c-8 0 -29 -3 -37 -3
c20 26 43 39 70 40c5 0 21 -2 48 -7c-15 58 -50 87 -107 88c-8 0 -19 -1 -33 -3c15 25 36 38 64 38c24 0 50 -7 77 -21c-13 69 -60 105 -141 106c19 22 41 33 68 33c20 -1 44 -6 72 -16v80zM291 522v-356c0 -83 -24 -136 -71 -160c5 0 17 -1 22 -1c29 1 52 17 68 46
c13 23 19 51 19 83v408zM351 543v-129c36 -26 70 -39 102 -40c31 -1 61 13 90 42c-12 38 -37 69 -76 92c-33 20 -72 32 -116 35zM351 390v-133c31 21 63 32 95 32c31 0 60 -11 87 -32c14 32 21 65 21 99c1 14 -1 26 -5 37c-31 -27 -64 -40 -100 -39c-33 0 -65 12 -98 36z
" />
    <glyph glyph-name="O" unicode="O" horiz-adv-x="698" 
d="M369 659c85 -9 156 -35 211 -76c66 -50 98 -115 95 -194c-3 -91 -49 -178 -137 -262c-87 -83 -176 -126 -267 -127c-73 -2 -134 27 -183 88c-44 55 -66 121 -67 197c-1 43 12 101 37 175c68 46 172 112 311 199zM198 524c-55 -56 -82 -119 -81 -190
c1 -63 18 -116 53 -161c19 24 28 47 28 69v282zM284 571v-262c0 -27 -11 -55 -34 -86c-12 -15 -34 -39 -65 -70c50 -45 96 -68 137 -69v487h-38zM346 569v-113c33 -30 67 -45 100 -45c37 -1 69 15 95 46c-35 64 -100 101 -195 112zM346 252v-168c44 1 86 18 125 51
c34 28 62 64 83 109c-23 39 -58 59 -103 59c-36 0 -71 -17 -105 -51zM346 284c34 25 69 37 105 37c44 1 82 -16 113 -50c10 23 15 43 15 62c1 45 -8 79 -26 103c-35 -30 -72 -45 -111 -44c-29 0 -61 10 -96 31v-139z" />
    <glyph glyph-name="P" unicode="P" horiz-adv-x="678" 
d="M39 590c37 36 79 54 124 54c69 0 123 -51 124 -120l46 30v90h22v-75l106 76c41 -31 70 -53 86 -68c56 -51 84 -104 84 -161v-312l-145 -119c-49 21 -93 34 -131 39v-162c-9 1 -16 1 -23 1h-128c-9 0 -16 0 -23 -1v175c-54 -1 -111 -14 -172 -39l-6 9c35 58 93 99 176 122
c-11 89 -64 157 -157 204v4l159 113v65c0 48 -26 72 -77 72c-17 0 -39 -3 -65 -9v12zM181 424l-75 -51l75 -61v112zM291 -111h42v641l-42 -28v-613zM355 545v-149c21 -21 49 -32 85 -33c30 0 57 11 81 33c-1 41 -15 77 -43 108c-27 31 -62 48 -104 50zM355 368v-122
c25 15 52 22 82 23c28 0 56 -8 84 -24v123c-24 -15 -51 -23 -81 -23c-34 0 -62 8 -85 23zM355 225v-87c63 -10 118 -27 166 -52v131c-27 22 -57 33 -90 33c-22 -1 -47 -9 -76 -25z" />
    <glyph glyph-name="Q" unicode="Q" horiz-adv-x="724" 
d="M368 645c81 -11 150 -38 207 -81c67 -51 100 -114 100 -189c0 -83 -40 -165 -119 -245l83 -67c15 -13 24 -20 27 -19c2 1 9 5 22 13l17 -16l-99 -87l-131 108c-75 -52 -144 -78 -207 -77c-77 0 -138 29 -184 87c-41 53 -62 120 -63 199c0 41 12 97 36 167
c25 15 51 32 78 51zM194 500c-56 -51 -83 -113 -82 -187c1 -60 19 -112 54 -156c19 22 28 46 28 71v272zM281 546v-252c0 -27 -11 -56 -34 -86c-11 -15 -33 -39 -65 -71c49 -45 95 -67 138 -67v476h-39zM344 544v-110c32 -29 65 -43 100 -43c40 -1 72 14 96 45
c-36 61 -101 97 -196 108zM344 233v-164c44 1 86 17 125 50c34 27 62 63 85 108c-27 37 -62 56 -105 56c-36 0 -71 -17 -105 -50zM344 265c34 24 70 36 107 36c44 1 82 -16 113 -50c10 23 15 46 15 67c1 41 -8 73 -26 97c-35 -30 -73 -45 -112 -44c-29 0 -62 10 -97 31v-137
z" />
    <glyph glyph-name="R" unicode="R" horiz-adv-x="703" 
d="M44 590c38 35 80 53 126 53c69 -1 118 -47 119 -116l172 119l138 -186l-137 -95c61 -35 105 -87 132 -156c6 -17 15 -42 28 -75c11 -28 25 -50 40 -67l23 19l14 -13l-91 -88h-14c-21 13 -39 38 -56 75c-6 13 -18 44 -35 91c-29 81 -74 127 -133 136h-13v-168
c31 -10 61 -24 90 -43l21 21l15 -15l-104 -103c-61 41 -118 61 -171 61c-65 0 -130 -14 -195 -41l-4 4c47 61 108 103 182 126c-11 91 -65 159 -163 204v5l160 119v67c0 19 -8 35 -25 47c-15 11 -32 16 -52 16c-17 1 -40 -2 -67 -9v12zM293 504v-375c16 0 30 -2 42 -5v412z
M357 549v-236l142 103l-113 153zM188 429l-71 -53l71 -56v109z" />
    <glyph glyph-name="S" unicode="S" horiz-adv-x="724" 
d="M277 648c58 -23 120 -44 187 -65l23 41l21 -14l-95 -169c9 0 34 2 45 2c61 -1 113 -16 158 -44c51 -33 77 -79 78 -136c1 -64 -27 -121 -83 -172c-35 -33 -91 -68 -167 -106l-119 49c-81 -39 -149 -58 -203 -58c-30 0 -56 7 -78 21c-26 15 -39 37 -39 65
c0 34 15 60 46 79c25 15 56 23 93 24c27 0 56 -2 87 -7l25 46h-36c-45 0 -85 10 -120 31c-42 25 -63 59 -64 100s25 73 77 95c-3 37 16 79 57 124c15 15 50 47 107 94zM256 559c-21 0 -39 -6 -53 -18c-15 -13 -23 -29 -24 -50c0 -41 32 -61 97 -61c14 0 32 1 55 3l53 5
l33 60c-53 40 -107 60 -161 61zM363 349l-28 -54c43 6 79 9 110 9c85 0 128 -29 128 -87c1 -38 -39 -78 -120 -119l82 -32c61 51 91 104 90 159c-1 87 -59 131 -172 131c-35 0 -65 -2 -90 -7zM332 346c-15 -1 -43 -3 -83 -5c-67 -1 -109 22 -128 71c-17 -18 -25 -34 -25 -47
c1 -51 48 -76 142 -76c5 0 20 1 44 2l21 1zM284 204l-26 -50c51 -11 104 -25 159 -44c43 26 66 51 67 76c0 12 -7 20 -20 24c-9 3 -21 4 -36 4c-35 0 -83 -3 -144 -10zM286 45c-67 29 -127 43 -181 43c-17 0 -31 -3 -42 -9c-14 -9 -21 -21 -21 -37c0 -15 9 -27 27 -36
c14 -6 30 -9 48 -9c61 1 117 17 169 48z" />
    <glyph glyph-name="T" unicode="T" horiz-adv-x="636" 
d="M11 458c23 125 102 187 236 185c33 -1 81 -8 143 -23c65 -15 112 -23 143 -24c35 -2 64 15 85 52l7 -2c0 -42 -14 -76 -42 -101c-27 -24 -63 -37 -106 -38c-8 0 -18 0 -31 1v-432c65 11 120 55 167 131l9 -3c-28 -139 -128 -220 -269 -220c-83 0 -152 24 -208 73
c-58 51 -87 118 -88 200c0 57 16 112 48 164c31 49 71 90 122 123c-10 3 -28 4 -55 4c-62 1 -112 -29 -151 -90h-10zM252 541c-67 -67 -99 -142 -98 -227c1 -75 27 -136 78 -183c21 21 31 45 31 72v335zM361 523v-238c0 -48 -36 -103 -108 -166c26 -21 53 -34 80 -41
c21 -5 51 -7 91 -7v437z" />
    <glyph glyph-name="U" unicode="U" horiz-adv-x="756" 
d="M306 575c-37 -11 -68 -16 -91 -16c-7 0 -17 0 -30 1c-15 1 -25 2 -31 2c-62 1 -106 -32 -131 -98h-11c1 49 11 90 31 122c25 38 60 57 106 57c19 0 46 -4 81 -12c37 -8 65 -12 83 -12c26 -1 49 7 70 24h22v-239c24 -14 49 -21 75 -21c22 0 46 7 71 21v119l-41 28l-34 -37
l-16 11l99 118l90 -61l49 41l8 -7c-27 -37 -41 -71 -41 -104v-382c0 -34 7 -57 20 -70l28 27l15 -14l-91 -89h-18c-38 31 -60 71 -66 121c-80 -82 -162 -122 -247 -121c-73 1 -133 26 -179 76c-45 49 -67 110 -68 184c0 70 25 136 76 198c44 53 101 97 171 133zM336 570
c-52 -25 -94 -61 -125 -110s-47 -102 -48 -159c-1 -66 18 -121 56 -164c23 22 35 52 35 91v183c0 55 27 108 82 159zM383 610c-25 -28 -38 -58 -38 -91v-237c0 -53 -37 -106 -112 -159c23 -19 46 -31 70 -37c19 -5 46 -7 80 -7v531zM405 382v-103c23 13 48 19 76 19
c23 0 46 -6 70 -18v102c-24 -13 -48 -19 -73 -19c-27 1 -51 7 -73 19zM480 279c-25 1 -50 -7 -75 -22v-176c45 0 110 26 146 55v121c-23 15 -46 22 -71 22z" />
    <glyph glyph-name="V" unicode="V" horiz-adv-x="616" 
d="M5 530c14 78 52 117 113 116c69 0 115 -43 140 -129l254 133c46 -67 69 -142 69 -226c0 -79 -27 -159 -81 -241c-31 -48 -86 -114 -166 -199c-35 21 -65 32 -91 32c-27 0 -60 -8 -99 -23l-18 9c31 73 47 131 48 172c0 59 -36 96 -95 97l-22 -2c0 39 28 66 68 66
c20 1 40 -7 60 -23c1 55 -7 105 -22 151c-21 63 -52 97 -95 102c-17 -1 -37 -13 -58 -38zM265 494c9 -28 14 -60 15 -97c28 -10 58 -15 90 -16c32 0 66 8 101 24c-1 57 -18 114 -52 172zM372 362c-29 1 -59 5 -92 13c0 -39 -5 -79 -16 -122c27 7 52 10 74 10
c38 0 75 -8 111 -25c16 39 24 87 24 143c-37 -13 -71 -19 -101 -19zM308 96c23 0 45 -4 67 -13c32 51 54 96 67 136c-33 16 -66 24 -99 25c-32 0 -61 -5 -88 -16c-9 -46 -38 -108 -87 -186l10 -2c51 37 95 56 130 56z" />
    <glyph glyph-name="W" unicode="W" horiz-adv-x="1071" 
d="M11 475c0 46 10 84 31 113c23 35 56 53 100 54c17 -1 41 -8 73 -19c31 -12 56 -18 75 -19c29 -1 55 12 80 38h23v-568c25 16 46 35 62 57c-11 35 -17 68 -17 98c2 148 75 261 218 338c-26 -5 -47 -8 -63 -7c-12 0 -43 4 -55 4c-55 0 -92 -23 -111 -68l-13 4
c17 97 60 144 127 143c16 -1 39 -7 69 -18c31 -11 54 -16 70 -17c28 -1 47 11 58 34h25v-246c21 -8 40 -12 58 -12c17 0 37 4 59 12v126l-33 34l-28 -30l-21 16l98 100l72 -71l63 42l8 -8c-29 -34 -44 -69 -44 -106v-377c0 -29 6 -49 18 -62l35 26l14 -16l-97 -86
c-49 24 -76 64 -82 120c-79 -80 -154 -120 -227 -120c-85 0 -149 41 -190 124c-57 -83 -121 -125 -193 -124c-69 1 -123 26 -163 75c-37 46 -56 104 -57 174c-1 71 20 138 64 199c40 55 94 101 161 137c-26 -9 -52 -14 -77 -14c-13 0 -46 4 -59 4c-55 0 -94 -29 -117 -86z
M305 563c-52 -25 -92 -63 -121 -113c-27 -48 -41 -102 -41 -161c1 -67 20 -118 57 -155c21 19 31 49 31 90v167c0 63 25 120 74 172zM371 602c-34 -22 -51 -52 -51 -89v-231c0 -69 -35 -124 -105 -163c35 -33 72 -50 113 -50h43v533zM741 602c-27 -18 -40 -45 -40 -80v-238
c0 -69 -37 -124 -110 -164c38 -35 88 -52 150 -51v533zM763 375v-103c17 8 35 12 56 12c23 0 43 -4 61 -12v103c-22 -8 -43 -12 -63 -12c-19 0 -37 4 -54 12zM763 250v-175c36 9 75 28 117 56v119c-24 9 -44 13 -61 13c-13 0 -31 -4 -56 -13zM687 564
c-51 -27 -90 -65 -118 -114s-42 -103 -41 -160c1 -59 17 -111 48 -156c24 23 36 55 36 95v164c0 63 25 120 75 171z" />
    <glyph glyph-name="X" unicode="X" horiz-adv-x="586" 
d="M132 643c29 -1 51 -9 66 -25c15 -15 33 -47 56 -95l60 -121l109 243c50 -32 93 -57 129 -74l-40 -87l-111 48l-69 -151v-11h173l-32 -74h-112l86 -177c15 -29 30 -47 46 -56l29 29l17 -17l-93 -91c-33 7 -68 49 -106 124l-70 155l-126 -278c-41 34 -84 59 -131 75l41 94
l117 -49l79 177v14h-169l31 74h107l-75 150c-13 25 -45 49 -72 49c-17 1 -39 -8 -67 -26l-5 5c32 63 76 95 132 95z" />
    <glyph glyph-name="Y" unicode="Y" horiz-adv-x="671" 
d="M59 621c25 13 50 20 76 21c64 0 114 -35 127 -96c69 50 129 75 182 75c60 0 106 -25 137 -74c27 -43 40 -95 39 -158c-1 -87 -22 -156 -61 -207c-44 -56 -108 -84 -193 -84h-182c-39 0 -72 -6 -97 -19c-33 -17 -50 -43 -49 -79c1 -49 37 -84 88 -84c15 0 33 4 54 11
c35 17 76 33 123 50c20 7 46 11 77 11c28 0 51 -7 70 -21c21 -15 31 -36 32 -63c0 -27 -14 -42 -43 -43c-23 1 -35 14 -36 39c1 12 15 36 16 45c0 9 -6 14 -18 13c-10 0 -44 -16 -101 -48c-61 -34 -110 -51 -146 -50c-39 0 -72 13 -99 38c-28 27 -42 59 -42 97
c0 39 15 70 45 93c27 21 61 31 102 32v53c0 25 -12 51 -36 77c-20 21 -44 38 -71 51v8c7 0 23 2 30 2c29 0 54 -8 77 -23v40c0 23 -12 46 -35 69c-21 19 -44 34 -69 43v6c13 4 27 6 40 6c18 0 39 -5 64 -14v98c0 51 -34 76 -101 77v8zM260 524v-404h45v424zM329 556v-120
c25 -21 51 -32 79 -33c32 0 62 12 90 36c-13 86 -50 129 -109 129c-22 1 -42 -3 -60 -12zM329 410v-127c27 18 54 27 79 28c29 0 60 -11 93 -34c4 33 6 59 6 76c0 18 -1 39 -4 64c-36 -24 -68 -36 -96 -36c-26 1 -52 10 -78 29zM329 259v-139h34c35 0 65 14 89 43
c21 25 36 55 43 92c-26 23 -54 34 -84 34c-25 0 -53 -10 -82 -30z" />
    <glyph glyph-name="Z" unicode="Z" horiz-adv-x="539" 
d="M26 533c40 44 72 81 95 111c67 -29 126 -44 176 -45c59 -1 123 12 193 37l6 -7c-37 -47 -75 -109 -113 -187l-27 -55h112l-14 -33h-116c-5 -11 -15 -27 -29 -46h123l-16 -33h-130c-35 -49 -92 -109 -171 -180l-57 -51c67 33 129 55 186 66c21 5 44 7 69 7
c51 0 100 -12 145 -35l34 36l17 -14l-99 -119c-77 36 -144 54 -203 54c-63 0 -135 -16 -217 -47l-7 8c37 42 70 90 101 144l77 131h-113l14 33h115l30 46h-122l13 33h132c55 71 125 140 209 209c-88 -48 -166 -72 -235 -71c-39 1 -82 9 -131 24l-32 -30z" />
    <glyph glyph-name="bracketleft" unicode="[" horiz-adv-x="330" 
d="M106 765h195v-21h-97v-843h97v-21h-195v885z" />
    <glyph glyph-name="backslash" unicode="\" horiz-adv-x="286" 
d="M167 111l66 -45l33 32l13 -15l-97 -94c-33 32 -78 58 -137 78c19 15 28 40 28 76v256h-50l8 53h42v104c29 14 64 38 103 72l92 -23l-20 -72l-81 20v-442z" />
    <glyph glyph-name="bracketright" unicode="]" horiz-adv-x="330" 
d="M222 765v-885h-195v21h97v843h-97v21h195z" />
    <glyph glyph-name="asciicircum" unicode="^" horiz-adv-x="996" 
d="M201 435l250 273h93l250 -273h-47l-250 204l-250 -204h-46z" />
    <glyph glyph-name="underscore" unicode="_" 
d="M497 -165v-69h-497v69h497z" />
    <glyph glyph-name="grave" unicode="`" 
d="M130 665l70 25c43 -61 91 -111 142 -152l-39 -17c-73 39 -130 87 -173 144z" />
    <glyph glyph-name="a" unicode="a" horiz-adv-x="373" 
d="M84 429c37 -2 68 12 92 41l134 -50l26 21l6 -5c-22 -35 -33 -62 -33 -82v-255c0 -13 8 -24 23 -33l17 15l15 -16l-87 -76c-38 20 -57 57 -58 111l-124 -111h-9c-44 42 -66 86 -67 131c0 57 31 118 93 183l-46 127zM89 414l40 -110l90 -51v109zM126 287
c-18 -30 -27 -61 -27 -94c0 -53 18 -96 53 -129l67 63v108z" />
    <glyph glyph-name="b" unicode="b" horiz-adv-x="390" 
d="M23 613c27 -5 47 -16 62 -32h11c23 33 54 49 92 50l2 -4c-30 -25 -45 -54 -45 -85v-187l132 115c36 -28 62 -81 62 -128v-280c-52 -13 -97 -38 -134 -73c-59 51 -118 81 -178 90c19 12 28 34 28 66v249h-49v57h49v96c0 20 -12 41 -35 62zM145 326v-202l104 -50v265
c0 17 -11 31 -32 43z" />
    <glyph glyph-name="c" unicode="c" horiz-adv-x="281" 
d="M49 390c46 18 84 45 115 80l99 -69l-42 -65l-82 56v-287l78 -40l41 33l13 -15l-117 -95c-38 39 -82 61 -133 68c19 15 28 39 28 74v260z" />
    <glyph glyph-name="d" unicode="d" horiz-adv-x="383" 
d="M17 607l284 -198c9 17 21 28 36 33l5 -2c-7 -9 -10 -24 -10 -45v-332c-55 -17 -102 -41 -139 -74c-51 39 -108 65 -171 78c18 12 27 38 27 78v245c31 7 58 18 80 35l-112 79v103zM167 401l-27 -18v-274l102 -40v279z" />
    <glyph glyph-name="e" unicode="e" horiz-adv-x="307" 
d="M49 390c39 16 82 43 129 80l125 -135l-164 -132v-104l76 -36l61 43l14 -15c-31 -22 -76 -56 -135 -102c-39 27 -84 45 -134 54c19 14 28 38 28 73v274zM134 399v-170l90 74z" />
    <glyph glyph-name="f" unicode="f" horiz-adv-x="286" 
d="M73 556c29 14 64 38 103 72l92 -23l-20 -72l-81 20v-101h72l-9 -53h-63v-288l66 -45l33 32l13 -15l-97 -94c-33 32 -78 58 -137 78c19 15 28 40 28 76v256h-50l8 53h42v104z" />
    <glyph glyph-name="g" unicode="g" horiz-adv-x="420" 
d="M197 470l142 -73l71 51v-104l-73 11v-240c2 -24 13 -52 33 -85c21 -33 32 -57 34 -73c-1 -15 -6 -26 -15 -33l-101 -62c-39 14 -79 21 -120 21c-43 0 -80 -7 -111 -21l-21 19l102 121l-89 69v332c37 9 86 31 148 67zM136 396v-283l59 -42l55 63v225zM248 97l-131 -153
c25 7 53 10 84 9c46 0 94 -9 143 -28v10c-57 49 -89 103 -96 162z" />
    <glyph glyph-name="h" unicode="h" horiz-adv-x="390" 
d="M23 615c27 -6 47 -17 62 -33h11c23 33 54 49 92 50l2 -4c-30 -25 -45 -54 -45 -85v-182l132 110c41 -31 62 -74 62 -127v-256c0 -51 -27 -95 -80 -131c-51 -35 -107 -59 -170 -70l-3 10c51 20 87 39 109 56c36 27 54 61 54 102v285c0 23 -11 41 -32 52l-72 -59v-248
l27 -28l-74 -68l-74 64l31 32v315h-49v53h49v95c0 21 -12 41 -35 62z" />
    <glyph glyph-name="i" unicode="i" horiz-adv-x="207" 
d="M127 617h59l-73 -110h-8zM20 404l74 66l75 -71l-25 -29v-270c0 -14 8 -26 24 -35l16 15l15 -16l-88 -75c-41 17 -62 52 -62 107v275z" />
    <glyph glyph-name="j" unicode="j" horiz-adv-x="237" 
d="M145 617h59l-72 -110h-9zM18 390l96 80c22 -28 52 -57 89 -88c-33 -53 -50 -107 -49 -160c3 -29 7 -82 11 -159c2 -82 -40 -144 -125 -186l-11 14c38 33 57 75 56 125c-1 23 -5 59 -12 106c-7 48 -11 84 -12 108c0 43 9 88 27 135l-30 31l-29 -21z" />
    <glyph glyph-name="k" unicode="k" horiz-adv-x="387" 
d="M87 580h11c23 33 54 49 92 50l2 -4c-30 -25 -45 -53 -45 -84v-194l120 122l87 -100l-89 -88c37 -32 60 -70 68 -114l8 -52c3 -17 10 -33 19 -47l15 14l16 -18l-89 -76c-27 21 -43 54 -46 99l-88 -99c-48 31 -94 54 -138 67c18 12 27 33 27 63v279h-49v53h49v95
c0 20 -12 41 -35 62l3 4c26 -5 47 -16 62 -32zM198 220l-51 -50v-79l53 -30l50 59c0 39 -17 73 -52 100zM218 389l-71 -74v-114l128 124z" />
    <glyph glyph-name="l" unicode="l" horiz-adv-x="279" 
d="M107 578h13c30 33 62 49 95 50l1 -3c-30 -24 -45 -57 -45 -98v-416l65 -45l24 21l14 -13l-88 -85c-37 35 -82 61 -136 77c18 18 27 44 27 77v399c0 23 -12 44 -35 64l3 4c25 -5 46 -15 62 -32z" />
    <glyph glyph-name="m" unicode="m" horiz-adv-x="593" 
d="M8 391l78 79c41 -23 62 -59 61 -110l134 109c33 -29 53 -65 59 -108c25 19 65 53 121 104l62 -66l40 38l13 -15c-10 -14 -24 -36 -41 -66v-254c0 -16 8 -28 24 -37l16 15l15 -16l-86 -75c-39 19 -59 55 -59 108v251l-40 39l-64 -50v-249l26 -33l-70 -66l-73 66l27 30v260
c0 14 -10 30 -31 47l-73 -59v-246l26 -33l-71 -66l-74 67l29 30v265c0 15 -6 28 -18 39l-17 -14z" />
    <glyph glyph-name="n" unicode="n" horiz-adv-x="401" 
d="M84 470c41 -23 62 -59 61 -109c27 21 68 55 121 104l62 -66l39 38l14 -15c-10 -14 -24 -36 -41 -66v-254c0 -15 8 -28 24 -37l16 15l15 -16l-86 -75c-39 19 -59 55 -59 108v251l-40 39l-65 -51v-249l26 -33l-71 -66l-74 67l29 30v265c0 15 -6 28 -18 39l-17 -14l-14 16z
" />
    <glyph glyph-name="o" unicode="o" horiz-adv-x="384" 
d="M49 387c52 13 97 40 135 83c48 -38 98 -63 149 -74v-333c-56 -17 -102 -41 -139 -74c-47 35 -104 61 -173 78c19 12 28 41 28 87v233zM139 387v-276l104 -42v272z" />
    <glyph glyph-name="p" unicode="p" horiz-adv-x="390" 
d="M156 367c31 24 62 58 95 103c29 -9 52 -28 71 -56c17 -27 26 -56 26 -87v-240c-38 -23 -76 -54 -115 -94c-19 13 -45 27 -77 42v-67c0 -31 16 -66 47 -106c-35 1 -69 22 -102 63c-29 -27 -54 -41 -75 -42c27 28 40 56 40 85v89c-10 4 -21 6 -32 5l-19 -1v34
c21 7 38 12 51 14v239c0 20 -7 35 -20 44l-23 -20l-14 16l83 82c43 -22 64 -56 64 -103zM156 333v-225c35 -8 69 -19 102 -34v254c0 11 -5 23 -15 35c-9 11 -20 19 -32 24z" />
    <glyph glyph-name="q" unicode="q" horiz-adv-x="355" 
d="M31 395c51 13 95 38 134 75c56 -49 114 -79 173 -91v-4l-23 -34v-373c0 -28 14 -57 41 -86c-23 1 -49 16 -76 43c-33 -43 -66 -64 -101 -63c31 38 46 72 46 103v131l-132 -107c-41 28 -62 68 -62 119v287zM121 115c0 -21 11 -38 32 -49l72 59v206l-104 51v-267z" />
    <glyph glyph-name="r" unicode="r" horiz-adv-x="318" 
d="M5 389l84 81c39 -19 58 -47 58 -82l93 82l65 -77l-66 -61l-55 62l-36 -31v-260l51 -40l26 23l13 -16l-87 -81c-33 34 -74 59 -123 75c18 17 27 40 27 67v216c0 14 -6 28 -18 41l-17 -14z" />
    <glyph glyph-name="s" unicode="s" horiz-adv-x="369" 
d="M29 386c47 20 86 48 115 84c45 -27 86 -40 124 -41c36 -1 54 11 55 35c-1 12 -25 32 -26 47c1 16 9 24 26 23c22 -1 33 -12 32 -35c-1 -26 -16 -60 -47 -102l-70 -94l92 -57v-186c-47 -13 -88 -37 -123 -71c-29 20 -59 30 -91 30c-26 0 -58 -8 -95 -24l-16 10l116 169
l-92 54v158zM190 232l-103 -144c13 4 32 8 59 13c34 0 66 -11 97 -33v133zM116 388v-116l53 -29l87 126c-18 -5 -37 -7 -58 -7c-28 1 -55 9 -82 26z" />
    <glyph glyph-name="t" unicode="t" horiz-adv-x="265" 
d="M20 417l126 170v-135h96v-53h-96v-292l49 -43l26 24l13 -15l-87 -84c-30 34 -70 60 -121 78c18 15 27 39 27 72v259h-33v19z" />
    <glyph glyph-name="u" unicode="u" horiz-adv-x="397" 
d="M5 390l95 80l73 -63l-28 -29v-262c0 -21 11 -37 32 -50l73 59v250l-26 33l70 62l74 -63l-28 -29v-277c0 -13 8 -25 24 -36l17 14l14 -16l-87 -75c-39 21 -58 57 -58 108l-133 -107c-19 11 -34 27 -45 50c-11 21 -17 43 -17 66v270l-15 16l-20 -17z" />
    <glyph glyph-name="v" unicode="v" horiz-adv-x="384" 
d="M105 596l8 -13c-27 -25 -40 -47 -40 -64c2 -12 13 -33 33 -64c20 -29 31 -61 33 -96l131 112c42 -45 63 -81 63 -106v-302c-55 -16 -102 -41 -140 -74c-51 39 -109 65 -172 78c19 14 28 41 28 81v227c-26 31 -39 64 -39 98c-1 46 31 87 95 123zM139 329v-219l104 -41v264
c0 15 -10 33 -31 55z" />
    <glyph glyph-name="w" unicode="w" horiz-adv-x="570" 
d="M105 596l8 -13c-27 -25 -40 -47 -40 -64c1 -11 12 -32 33 -62c20 -29 31 -60 33 -95l130 108c42 -35 63 -71 62 -107l126 107c42 -41 63 -75 63 -102v-305c-45 -13 -90 -38 -133 -74c-23 12 -41 20 -52 25c-20 9 -38 13 -55 13c-27 1 -57 -12 -90 -38
c-52 37 -109 63 -170 77c19 16 29 44 29 84v230c-26 31 -39 62 -39 93c-1 46 31 87 95 123zM139 333v-227c33 -15 67 -29 104 -42v269c0 19 -11 39 -33 59zM333 333v-232c28 -14 63 -26 104 -37v270c0 16 -10 35 -31 58z" />
    <glyph glyph-name="x" unicode="x" horiz-adv-x="403" 
d="M97 470c27 -13 51 -36 72 -71c9 -15 25 -46 47 -92l68 163l89 -54l-31 -77l-71 36l-40 -98c11 -20 21 -39 29 -57l30 -63c23 -47 45 -79 68 -96l23 20l14 -15l-81 -77c-26 15 -52 45 -77 90c-3 4 -21 40 -54 108l-81 -198l-91 53l31 80l76 -33l50 125l-48 103
c-25 47 -48 75 -71 84l-30 -23l-12 15z" />
    <glyph glyph-name="y" unicode="y" horiz-adv-x="390" 
d="M22 379l94 91c42 -24 62 -61 60 -112l124 108c41 -44 61 -97 60 -158c-1 -65 -24 -119 -69 -162c-31 -29 -87 -67 -166 -114c-59 -34 -88 -66 -88 -96c0 -31 23 -48 70 -50c23 1 42 9 58 22s28 19 35 20c11 0 17 -5 16 -17c-1 -17 -15 -30 -43 -39
c-20 -7 -41 -10 -62 -10c-26 0 -49 5 -68 15c-24 13 -35 31 -34 55c1 20 12 44 31 73c30 47 45 70 45 71v269c0 17 -6 32 -19 45l-28 -27zM175 331v-245c67 48 100 110 100 185c1 47 -12 84 -39 111z" />
    <glyph glyph-name="z" unicode="z" horiz-adv-x="292" 
d="M13 382l120 88c11 -11 29 -27 52 -48c24 -21 43 -33 58 -34v-7l-117 -119c37 -1 67 -9 89 -25c26 -19 39 -46 38 -82c-1 -57 -34 -102 -98 -136c-34 -18 -54 -29 -60 -34c-23 -17 -35 -34 -36 -53c0 -26 11 -40 34 -41c3 1 7 2 14 3c6 1 11 2 15 2c9 1 14 -4 15 -13
c-1 -13 -11 -20 -30 -21c-36 1 -66 33 -67 69c4 29 16 52 35 69c11 10 29 25 52 44c19 21 31 47 35 80c-1 45 -25 68 -72 68c-23 1 -48 -3 -73 -12l139 144l-78 77l-52 -36z" />
    <glyph glyph-name="braceleft" unicode="{" 
d="M412 733v-25c-83 0 -115 -31 -115 -112v-119c0 -53 -10 -92 -29 -117s-54 -42 -105 -53c51 -11 86 -29 105 -54s29 -64 29 -116v-119c0 -80 34 -111 115 -111v-25c-61 0 -106 9 -135 26c-37 23 -56 62 -56 117v139c0 45 -11 78 -34 97c-20 17 -54 27 -101 31v29
c47 4 81 14 101 31c23 19 34 52 34 98v137c0 57 18 97 55 120c29 18 74 27 136 26z" />
    <glyph glyph-name="bar" unicode="|" 
d="M213 758h72v-992h-72v992z" />
    <glyph glyph-name="braceright" unicode="}" 
d="M85 733c62 1 107 -8 136 -26c37 -23 55 -63 55 -120v-137c0 -46 11 -79 34 -98c20 -17 54 -27 101 -31v-29c-47 -4 -81 -14 -101 -31c-23 -19 -34 -52 -34 -97v-139c0 -55 -19 -94 -56 -117c-29 -17 -74 -26 -135 -26v25c83 0 115 31 115 111v119c0 52 10 91 29 116
s54 43 105 54c-51 11 -86 29 -105 54s-29 63 -29 116v119c0 83 -32 112 -115 112v25z" />
    <glyph glyph-name="asciitilde" unicode="~" horiz-adv-x="996" 
d="M203 517c33 79 89 119 167 120c35 0 83 -10 144 -30c33 -11 55 -17 66 -20c25 -7 48 -10 67 -10c49 -1 87 21 116 66l29 -18c-24 -71 -85 -113 -161 -113c-25 0 -50 3 -74 9l-142 42c-21 5 -44 8 -67 8c-45 0 -83 -23 -114 -70z" />
    <glyph glyph-name="Euro" unicode="&#x20ac;" horiz-adv-x="598" 
d="M104 403h207v-34h-212l1 -37c0 -10 1 -20 3 -29h208v-34h-198c18 -51 50 -90 95 -118c45 -27 95 -40 150 -38c70 3 132 12 185 29l-60 -148c-61 -9 -105 -13 -134 -13c-86 0 -157 26 -212 79s-85 123 -91 209h-47v34h47c-1 15 -1 38 0 67l-47 -1v34h58
c13 55 40 100 82 137c35 31 56 48 61 52l140 105c9 -2 29 -10 61 -24c25 -11 46 -16 65 -16c8 0 24 4 47 13s29 14 18 14c-1 0 4 -3 13 -8c-31 -33 -54 -58 -70 -74c-36 -36 -66 -56 -90 -61l-92 36c-5 1 -12 1 -21 1c-14 0 -30 -2 -48 -6c-35 -26 -58 -47 -70 -62
c-24 -30 -40 -66 -49 -107z" />
    <glyph glyph-name="quotesinglbase" unicode="&#x201a;" horiz-adv-x="248" 
d="M58 46c0 36 20 54 60 55c25 0 44 -9 58 -26c13 -16 19 -37 20 -62c1 -66 -43 -125 -134 -176l-12 14c71 47 107 91 108 132c1 15 -5 18 -20 17h-28c-34 0 -51 15 -52 46z" />
    <glyph glyph-name="florin" unicode="&#x192;" horiz-adv-x="325" 
d="M300 581l-20 -73l-85 22v-138h73l-12 -53h-61v-399c-29 -17 -61 -43 -97 -78l-96 26l17 73l92 -23v401h-59l11 53h48v142c39 20 70 44 95 71z" />
    <glyph glyph-name="quotedblbase" unicode="&#x201e;" horiz-adv-x="413" 
d="M109 145c24 -29 47 -52 70 -71c-21 -63 -63 -115 -126 -157l-18 21c29 27 43 49 43 64c0 19 -15 41 -44 68zM291 145c25 -29 49 -53 70 -71c-21 -63 -63 -115 -126 -157l-18 21c29 27 43 49 43 64c0 19 -15 41 -44 68z" />
    <glyph glyph-name="ellipsis" unicode="&#x2026;" horiz-adv-x="994" 
d="M84 67l83 78c21 -27 45 -55 74 -82l-83 -74c-28 21 -53 47 -74 78zM498 145c19 -26 44 -53 74 -82l-83 -74c-28 21 -53 47 -74 78zM904 63l-83 -74c-28 21 -53 47 -74 78l83 78c19 -26 44 -53 74 -82z" />
    <glyph glyph-name="dagger" unicode="&#x2020;" 
d="M202 589c20 9 40 25 61 47h16v-211h123l14 37h18l-38 -108h-117v-446c-31 -5 -57 -20 -77 -45v491h-124l-13 -33h-18l37 104h118v164z" />
    <glyph glyph-name="daggerdbl" unicode="&#x2021;" 
d="M202 590c19 9 39 25 61 47h16v-209h124l13 35h18l-38 -109h-117v-208h125l12 37h18l-38 -110h-117v-164c-31 -5 -57 -20 -77 -45v209h-126l-11 -31h-18l38 104h117v208h-126l-11 -31h-18l37 105h118v162z" />
    <glyph glyph-name="circumflex" unicode="&#x2c6;" 
d="M249 621c-33 -44 -71 -77 -116 -100l-15 15c33 37 68 88 107 152h48c29 -53 65 -103 107 -152l-15 -15c-47 26 -85 59 -116 100z" />
    <glyph glyph-name="perthousand" unicode="&#x2030;" horiz-adv-x="1040" 
d="M161 607c98 -37 147 -94 147 -171c0 -81 -45 -150 -135 -207c-46 13 -82 35 -108 65c-29 33 -43 72 -42 119c1 76 47 141 138 194zM120 544c-28 -27 -42 -56 -41 -89c0 -39 13 -73 38 -103s57 -49 94 -56c29 30 42 66 41 108c-1 76 -56 131 -132 140zM558 607l-359 -617
h-55l359 617h55zM454 201c0 -77 56 -137 132 -152c29 28 42 62 41 101c-1 38 -14 70 -39 96c-23 24 -54 39 -92 46c-29 -27 -43 -58 -42 -91zM683 182c0 -45 -13 -83 -38 -116c-21 -25 -53 -51 -97 -76c-101 25 -151 82 -150 169c1 79 48 145 139 199
c97 -39 146 -97 146 -176zM962 149c-1 38 -14 70 -39 96c-23 25 -54 40 -92 47c-29 -27 -43 -58 -42 -92c0 -77 56 -137 132 -152c29 28 42 62 41 101zM1018 181c0 -44 -13 -82 -39 -115c-20 -25 -52 -51 -96 -76c-101 25 -151 81 -150 168c1 78 48 145 139 201
c97 -41 145 -100 146 -178z" />
    <glyph glyph-name="Scaron" unicode="&#x160;" horiz-adv-x="724" 
d="M277 648c58 -23 120 -44 187 -65l22 41l21 -13l-94 -170c9 0 34 2 45 2c61 -1 114 -16 158 -44c51 -33 77 -79 78 -136c1 -64 -26 -121 -81 -172c-36 -33 -92 -68 -167 -106l-121 49c-81 -39 -149 -58 -203 -58c-30 0 -56 7 -78 21c-26 15 -39 37 -39 65
c0 34 15 60 46 79c25 15 56 23 93 24c27 0 56 -2 87 -7l25 46h-36c-45 0 -85 10 -120 31c-42 25 -63 59 -64 100s25 73 77 95c-3 37 16 79 57 124c15 15 50 47 107 94zM256 559c-21 0 -39 -6 -53 -18c-15 -13 -23 -29 -24 -50c0 -41 32 -61 97 -61c14 0 32 1 55 3l53 5
l33 60c-53 40 -107 60 -161 61zM363 349l-28 -54c43 6 79 9 110 9c85 0 128 -29 128 -87c1 -38 -39 -78 -120 -119l82 -32c61 51 91 104 90 159c-1 87 -59 131 -172 131c-35 0 -65 -2 -90 -7zM332 346c-15 -1 -43 -3 -83 -5c-67 -1 -109 22 -128 71c-17 -18 -25 -34 -25 -47
c1 -51 48 -76 142 -76c5 0 20 1 44 2l21 1zM284 204l-26 -50c51 -11 104 -25 159 -44c43 26 66 51 67 76c0 12 -7 20 -20 24c-9 3 -21 4 -36 4c-35 0 -83 -3 -144 -10zM286 45c-67 29 -127 43 -181 43c-17 0 -31 -3 -42 -9c-14 -9 -21 -21 -21 -37c0 -15 9 -27 27 -36
c14 -6 30 -9 48 -9c61 1 117 17 169 48zM504 880l15 -14c-34 -39 -70 -91 -107 -154h-48c-31 57 -67 108 -107 154l15 14c47 -27 86 -60 116 -100c33 44 72 77 116 100z" />
    <glyph glyph-name="guilsinglleft" unicode="&#x2039;" horiz-adv-x="288" 
d="M47 228c54 58 97 114 129 167l60 -35l-106 -132l107 -130l-63 -36c-45 66 -87 121 -127 166z" />
    <glyph glyph-name="OE" unicode="&#x152;" horiz-adv-x="1001" 
d="M971 606l24 1l-118 -149h91l-46 -101h-130v-274c40 1 76 9 107 25c25 13 55 34 89 65l7 -5c-55 -113 -133 -169 -236 -168c-61 0 -115 18 -160 54c-44 35 -75 82 -94 141c-31 -54 -70 -99 -116 -134c-53 -41 -108 -61 -164 -61c-65 0 -116 26 -155 79
c-35 48 -52 105 -52 172c0 45 4 84 12 117l21 85c87 61 174 130 261 206c50 -4 96 -21 138 -50c41 -29 73 -65 97 -110c35 49 81 85 138 107l2 -6c-40 -35 -68 -68 -85 -99c-19 -35 -28 -77 -28 -126c1 -86 16 -149 46 -190c13 11 20 24 20 40v265l169 168
c47 -37 101 -54 162 -52zM727 340c0 -63 -32 -121 -96 -174c28 -42 74 -69 139 -80v488l-43 -40v-194zM792 378l96 129l-96 43v-172zM160 505c-41 -53 -61 -117 -62 -192c0 -52 13 -100 38 -145c16 18 24 47 24 86v251zM233 560v-249c0 -53 -28 -107 -83 -162
c37 -42 79 -64 128 -65v476h-45zM300 558v-117c21 -25 47 -37 78 -37c37 0 64 15 82 45c-32 59 -85 96 -160 109zM300 255v-170c35 1 70 19 104 55c28 29 50 63 66 102c-21 37 -51 55 -89 55c-27 0 -54 -14 -81 -42zM300 284c29 21 57 32 84 32c21 0 39 -4 54 -12
c12 -7 26 -20 42 -37c8 28 12 52 12 73c1 29 -7 58 -23 89c-27 -29 -59 -43 -94 -43c-28 0 -53 9 -75 28v-130z" />
    <glyph glyph-name="quoteleft" unicode="&#x2018;" horiz-adv-x="231" 
d="M179 622c-28 -25 -42 -47 -43 -65c0 -15 14 -36 43 -63l-74 -72c-23 26 -46 49 -70 69c21 61 63 112 126 152z" />
    <glyph glyph-name="quoteright" unicode="&#x2019;" horiz-adv-x="231" 
d="M109 643c23 -27 47 -49 70 -68c-21 -61 -63 -112 -126 -153l-18 20c29 25 43 47 43 66c1 15 -14 36 -43 63z" />
    <glyph glyph-name="quotedblleft" unicode="&#x201c;" horiz-adv-x="413" 
d="M303 421c-21 25 -45 48 -70 69c21 62 63 113 126 153l19 -21c-29 -26 -43 -47 -44 -64c1 -17 15 -39 43 -65zM194 493l-74 -72c-22 25 -45 48 -70 69c21 61 63 112 126 153l19 -21c-29 -26 -43 -47 -44 -64c1 -17 15 -39 43 -65z" />
    <glyph glyph-name="quotedblright" unicode="&#x201d;" horiz-adv-x="413" 
d="M53 422l-19 20c29 26 43 47 44 64c-1 17 -15 39 -43 65l74 72c23 -27 47 -49 70 -68c-21 -61 -63 -112 -126 -153zM217 573l75 70c24 -27 47 -50 70 -68c-21 -61 -63 -112 -127 -153l-18 20c14 13 23 23 28 29c10 12 15 24 16 35c-1 16 -15 38 -44 67z" />
    <glyph glyph-name="bullet" unicode="&#x2022;" horiz-adv-x="588" 
d="M292 511c40 0 74 -14 102 -42s42 -62 42 -102s-14 -74 -42 -101s-62 -41 -102 -41c-39 0 -73 14 -101 41c-27 28 -41 62 -41 101s14 73 41 101c28 29 62 43 101 43z" />
    <glyph glyph-name="endash" unicode="&#x2013;" 
d="M0 204v60h497v-60h-497z" />
    <glyph glyph-name="emdash" unicode="&#x2014;" horiz-adv-x="996" 
d="M0 264h995v-60h-995v60z" />
    <glyph glyph-name="tilde" unicode="&#x2dc;" 
d="M191 649c16 -1 40 -5 71 -13s55 -12 71 -13c11 -1 18 1 23 6c3 3 7 10 12 22l21 -6c-13 -31 -23 -50 -28 -57c-15 -20 -32 -29 -52 -28c-16 1 -40 5 -73 14c-32 9 -56 13 -73 14c-13 1 -24 -9 -34 -30l-20 6c13 30 22 49 29 58c14 19 32 28 53 27z" />
    <glyph glyph-name="trademark" unicode="&#x2122;" horiz-adv-x="818" 
d="M380 686v13h92l67 -192l70 192h86v-12c-23 -1 -34 -9 -34 -25v-182c0 -19 11 -28 34 -28v-14h-115v13c24 0 36 9 36 27v190l-83 -231h-11l-83 230v-189c0 -18 12 -27 36 -26v-14h-94v14c24 0 36 8 36 23v187c0 15 -12 23 -37 24zM121 699h217l5 -89h-13
c0 49 -21 74 -62 74h-12v-205c0 -12 3 -20 9 -23c4 -3 13 -4 26 -4v-14h-122v14c13 0 21 1 26 4c7 3 10 11 10 23v205h-11c-41 0 -63 -25 -64 -74h-13z" />
    <glyph glyph-name="scaron" unicode="&#x161;" horiz-adv-x="369" 
d="M29 386c47 20 86 48 115 84c45 -27 86 -40 124 -41c36 -1 54 11 55 35c-1 12 -25 32 -26 47c1 16 9 24 26 23c22 -1 33 -12 32 -35c-1 -26 -16 -60 -47 -102l-70 -94l92 -57v-186c-47 -13 -88 -37 -123 -71c-29 20 -59 30 -91 30c-26 0 -58 -8 -95 -24l-16 10l116 169
l-92 54v158zM190 232l-103 -144c13 4 32 8 59 13c34 0 66 -11 97 -33v133zM116 388v-116l53 -29l87 126c-18 -5 -37 -7 -58 -7c-28 1 -55 9 -82 26zM300 688l15 -15c-35 -39 -70 -90 -107 -152h-48c-29 53 -65 103 -107 152l15 15c47 -27 86 -60 116 -100
c33 44 72 77 116 100z" />
    <glyph glyph-name="guilsinglright" unicode="&#x203a;" horiz-adv-x="288" 
d="M108 62l-60 34l106 133l-107 129l63 37c42 -64 84 -119 127 -166c-53 -59 -96 -115 -129 -167z" />
    <glyph glyph-name="oe" unicode="&#x153;" horiz-adv-x="493" 
d="M184 470c17 -13 46 -31 86 -54h17c14 6 28 14 41 24l38 30l122 -135l-161 -132v-103l75 -36l60 44l15 -17c-52 -35 -97 -69 -136 -102c-15 10 -40 23 -73 40h-21c-12 -8 -30 -21 -53 -40c-47 35 -104 61 -173 78c19 12 28 41 28 87v235c55 14 100 41 135 81zM326 231
l80 67l-80 90v-157zM139 389v-278l104 -42v276c-35 11 -69 26 -104 44z" />
    <glyph glyph-name="Ydieresis" unicode="&#x178;" horiz-adv-x="671" 
d="M59 621c25 13 50 20 76 21c64 0 114 -35 127 -96c69 50 129 75 182 75c60 0 106 -25 137 -74c27 -43 40 -95 39 -158c-1 -87 -22 -156 -61 -207c-44 -56 -108 -84 -193 -84h-182c-39 0 -72 -6 -97 -19c-33 -17 -50 -43 -49 -79c1 -49 37 -84 88 -84c15 0 33 4 54 11
c35 17 76 33 123 50c20 7 46 11 77 11c28 0 51 -7 70 -21c21 -15 31 -36 32 -63c0 -27 -14 -42 -43 -43c-23 1 -35 14 -36 39c1 12 15 36 16 45c0 9 -6 14 -18 13c-10 0 -44 -16 -101 -48c-61 -34 -110 -51 -146 -50c-39 0 -72 13 -99 38c-28 27 -42 59 -42 97
c0 39 15 70 45 93c27 21 61 31 102 32v53c0 25 -12 51 -36 77c-20 21 -44 38 -71 51v8c7 0 23 2 30 2c29 0 54 -8 77 -23v40c0 23 -12 46 -35 69c-21 19 -44 34 -69 43v6c13 4 27 6 40 6c18 0 39 -5 64 -14v98c0 51 -34 76 -101 77v8zM260 524v-404h45v424zM329 556v-120
c25 -21 51 -32 79 -33c32 0 62 12 90 36c-13 86 -50 129 -109 129c-22 1 -42 -3 -60 -12zM329 410v-127c27 18 54 27 79 28c29 0 60 -11 93 -34c4 33 6 59 6 76c0 18 -1 39 -4 64c-36 -24 -68 -36 -96 -36c-26 1 -52 10 -78 29zM329 259v-139h34c35 0 65 14 89 43
c21 25 36 55 43 92c-26 23 -54 34 -84 34c-25 0 -53 -10 -82 -30zM279 860l59 -64l-64 -61c-15 15 -34 36 -59 64zM446 860l59 -64l-64 -61c-15 15 -34 36 -59 64z" />
    <glyph glyph-name="exclamdown" unicode="&#xa1;" horiz-adv-x="230" 
d="M105 -11l-75 85c39 121 60 245 64 372h22c2 -127 23 -251 64 -372zM104 484c-23 28 -47 55 -74 82l83 77c26 -22 51 -49 74 -80z" />
    <glyph glyph-name="cent" unicode="&#xa2;" horiz-adv-x="461" 
d="M55 223v257c45 20 83 48 113 83v55h40v-80l71 -50l-46 -60l-25 16v-278l16 -6l39 33l13 -17l-68 -57v-139h-40v98c-34 29 -80 51 -137 68c16 23 24 48 24 77zM135 193l36 -15v294l-36 22v-301z" />
    <glyph glyph-name="sterling" unicode="&#xa3;" horiz-adv-x="461" 
d="M422 536l-41 -82l-166 76c-21 -31 -32 -60 -31 -87s15 -75 44 -145h119v-22h-114l1 -22c0 -2 0 -5 -1 -8v-10h114v-22h-116c-1 -32 -16 -75 -43 -130c47 12 88 18 121 18c41 0 83 -7 124 -22l-33 -94c-59 28 -112 42 -159 42c-51 0 -110 -12 -178 -36l-18 20
c31 23 67 43 108 59c7 14 10 31 10 50c0 33 -9 64 -28 93h-81v22h71l-13 40h-58v22h53l-5 46c1 49 19 99 54 149c31 45 69 82 115 111z" />
    <glyph glyph-name="currency" unicode="&#xa4;" horiz-adv-x="604" 
d="M39 650l40 39l98 -100c36 29 78 43 125 42c48 0 89 -14 123 -42l100 100l39 -39l-100 -100c28 -31 42 -72 42 -122c0 -49 -14 -89 -42 -122l100 -99l-40 -40l-99 99c-35 -27 -76 -41 -123 -41c-45 -1 -87 13 -125 42l-98 -100l-40 40l101 99c-28 31 -42 72 -42 123
c0 49 14 90 41 121zM153 431c0 -41 15 -77 44 -106s65 -44 106 -45c41 0 76 14 104 43c29 29 43 65 43 107c0 41 -15 76 -44 104c-29 29 -65 43 -106 43c-39 -1 -73 -16 -103 -45c-29 -29 -44 -62 -44 -101z" />
    <glyph glyph-name="yen" unicode="&#xa5;" horiz-adv-x="461" 
d="M-28 520c24 57 59 85 105 85c46 1 79 -34 99 -104l163 103c41 -43 61 -99 60 -169s-39 -132 -114 -185h115l-8 -55h-145v-93l43 -38l26 24l14 -15l-88 -84c-37 39 -73 64 -110 77c19 15 28 40 28 75v54h-114l7 55h99c-18 69 -37 140 -58 213c-14 52 -36 78 -65 78
c-17 0 -35 -9 -52 -26zM183 480l58 -235c51 49 77 107 78 172c0 47 -13 88 -40 123z" />
    <glyph glyph-name="brokenbar" unicode="&#xa6;" 
d="M213 693h72v-367h-72v367zM213 195h72v-365h-72v365z" />
    <glyph glyph-name="section" unicode="&#xa7;" horiz-adv-x="461" 
d="M53 466c1 45 18 85 51 118c32 32 71 52 116 60l173 -38l-31 -82l-226 59c-10 -17 -17 -31 -20 -44c-2 -9 -3 -17 -4 -24c-3 -42 34 -78 111 -108c31 -11 85 -26 164 -44c9 -20 13 -42 13 -65c-1 -48 -18 -97 -53 -148c29 -21 44 -57 43 -106c0 -47 -16 -87 -48 -121
s-72 -54 -120 -61l-195 44l32 81l248 -64c15 22 23 48 23 78c1 3 1 7 1 10c0 32 -16 57 -49 74c-35 19 -112 47 -231 82c-7 21 -11 42 -11 63c1 50 18 98 52 143c-26 27 -39 58 -39 93zM119 359c-16 -32 -24 -59 -25 -80c0 -15 5 -28 14 -37c8 -8 32 -18 72 -31l63 -19
c20 -6 45 -15 75 -26c15 31 23 59 24 85c0 14 -5 26 -14 36c-8 8 -35 18 -81 31c-35 10 -78 24 -128 41z" />
    <glyph glyph-name="dieresis" unicode="&#xa8;" 
d="M165 668l59 -64l-64 -61c-21 21 -40 42 -59 64zM332 668l59 -64l-64 -61c-21 21 -40 42 -59 64z" />
    <glyph glyph-name="copyright" unicode="&#xa9;" horiz-adv-x="818" 
d="M409 632c-83 0 -154 -30 -213 -91c-59 -60 -89 -131 -89 -214c0 -84 29 -156 88 -215s131 -89 214 -89c82 0 153 30 212 90c60 60 90 131 90 213c0 84 -29 156 -88 216s-130 90 -214 90zM405 673c98 -1 180 -34 247 -99c69 -67 103 -149 102 -246
c-1 -95 -34 -176 -101 -243c-66 -67 -146 -100 -240 -100c-96 0 -178 33 -247 98c-69 66 -103 147 -103 243c0 94 33 175 100 244s148 104 242 103zM519 500c15 1 24 11 27 32h17v-154h-19c-21 90 -67 135 -138 134c-78 -1 -117 -61 -117 -180c0 -124 43 -186 128 -187
c53 -1 98 27 136 84l18 -12c-36 -67 -92 -101 -167 -101c-57 0 -104 20 -143 60c-38 41 -57 89 -57 145c0 59 19 110 56 151c38 41 87 62 146 62c26 0 48 -5 67 -15c21 -11 37 -18 46 -19z" />
    <glyph glyph-name="ordfeminine" unicode="&#xaa;" horiz-adv-x="280" 
d="M50 629c38 0 65 10 82 29l100 -34l20 14l4 -5c-17 -23 -25 -44 -25 -62v-162c0 -17 6 -29 18 -34l13 11l10 -11l-64 -55c-29 15 -44 41 -44 79l-92 -79h-7c-33 26 -49 57 -50 93c-1 41 22 84 68 128zM66 619l30 -77l68 -37v78zM164 495l-69 34c-14 -19 -21 -40 -21 -63
c0 -39 13 -70 40 -91l50 43v77z" />
    <glyph glyph-name="guillemotleft" unicode="&#xab;" horiz-adv-x="456" 
d="M47 228c54 58 97 114 129 167l60 -35l-106 -132l107 -130l-63 -36c-45 66 -87 121 -127 166zM219 228c53 59 96 114 129 167l60 -35l-106 -132l107 -130l-63 -36c-42 63 -84 119 -127 166z" />
    <glyph glyph-name="logicalnot" unicode="&#xac;" horiz-adv-x="830" 
d="M706 172h-66v177h-516v67h582v-244z" />
    <glyph glyph-name="minus" unicode="&#x2212;" horiz-adv-x="830" 
d="M124 329h582v-67h-582v67z" />
    <glyph glyph-name="registered" unicode="&#xae;" horiz-adv-x="818" 
d="M409 632c-83 0 -154 -30 -213 -91c-59 -60 -89 -131 -89 -214c0 -84 29 -156 88 -215s131 -89 214 -89c82 0 153 30 212 90c60 60 90 131 90 213c0 84 -29 156 -88 216s-130 90 -214 90zM405 673c98 -1 180 -34 247 -99c69 -67 103 -149 102 -246
c-1 -95 -34 -176 -101 -243c-66 -67 -146 -100 -240 -100c-96 0 -178 33 -247 98c-69 66 -103 147 -103 243c0 94 33 175 100 244s148 104 242 103zM227 528h199c36 0 68 -6 95 -19c35 -17 52 -42 52 -74c0 -53 -47 -87 -140 -102c48 -17 80 -40 95 -69c7 -11 12 -34 16 -67
c3 -21 13 -34 30 -37c20 0 30 21 30 63h21c0 -63 -25 -95 -76 -94c-53 7 -80 32 -80 76c0 8 3 28 3 36c0 45 -31 74 -92 87h-22v-112c0 -21 3 -36 10 -43c11 -9 27 -13 47 -13v-21h-188v21c23 0 40 5 50 14c6 6 9 18 9 36v247c0 18 -3 30 -10 37c-10 9 -26 13 -49 13v21z
M407 509c-33 1 -49 -12 -49 -39v-122c7 0 26 -1 34 -1c69 1 104 30 104 85c0 51 -30 77 -89 77z" />
    <glyph glyph-name="macron" unicode="&#xaf;" 
d="M0 757h497v-69h-497v69z" />
    <glyph glyph-name="macron" unicode="&#x2c9;" 
d="M0 757h497v-69h-497v69z" />
    <glyph glyph-name="degree" unicode="&#xb0;" horiz-adv-x="327" 
d="M164 659c-53 0 -95 -41 -95 -96c0 -52 43 -92 95 -92s94 41 94 92c0 55 -41 96 -94 96zM164 705c39 0 71 -13 98 -40s41 -59 41 -98s-13 -73 -40 -101c-27 -27 -60 -41 -99 -41s-72 13 -99 40s-41 59 -41 98c0 38 14 71 41 99c27 29 60 43 99 43z" />
    <glyph glyph-name="plusminus" unicode="&#xb1;" horiz-adv-x="830" 
d="M124 412h257v165h68v-165h257v-67h-257v-165h-68v165h-257v67zM706 80v-67h-582v67h582z" />
    <glyph glyph-name="twosuperior" unicode="&#xb2;" horiz-adv-x="304" 
d="M125 601l139 -80c-1 -66 -27 -113 -79 -141l-72 -38c-26 -14 -50 -35 -72 -62c42 17 84 25 127 26c41 0 75 -7 100 -22l-47 -53c-36 15 -71 23 -106 23c-39 0 -77 -8 -114 -23c5 33 22 63 53 92c24 22 56 49 95 80c30 23 46 54 48 92c1 21 -11 43 -35 65l-110 -81l-41 38
z" />
    <glyph glyph-name="threesuperior" unicode="&#xb3;" horiz-adv-x="304" 
d="M27 538l92 63l131 -61c0 -5 2 -15 2 -19c0 -39 -26 -69 -79 -92c62 -16 93 -47 92 -92c0 -33 -20 -59 -59 -80c-31 -17 -65 -25 -103 -26l-103 82l44 39l124 -97c21 21 32 46 32 76c1 29 -10 51 -31 68c-19 14 -43 21 -74 22c-4 0 -15 -1 -19 -1v15c32 1 58 8 77 23
c22 17 33 40 32 71c0 23 -8 34 -23 34c-6 1 -39 -20 -99 -61z" />
    <glyph glyph-name="acute" unicode="&#xb4;" 
d="M387 665c-43 -57 -100 -105 -173 -144l-39 17c52 41 99 92 142 152z" />
    <glyph glyph-name="mu" unicode="&#xb5;" horiz-adv-x="569" 
d="M91 429h80c-8 -32 -20 -85 -35 -158c-15 -71 -23 -117 -22 -138c0 -48 26 -72 78 -71c35 0 61 9 79 28c14 15 26 40 35 75c6 24 13 56 22 96l35 168h82c-8 -33 -21 -93 -39 -180c-17 -81 -25 -128 -25 -140c0 -33 17 -49 50 -49c29 3 49 12 60 29c6 8 12 23 18 46
c5 18 12 29 22 32c7 0 10 -5 10 -16c1 -40 -10 -76 -33 -107c-25 -31 -57 -49 -96 -53c-54 1 -81 36 -81 106c-29 -71 -76 -106 -141 -106c-63 0 -104 39 -109 103c-12 -46 -21 -88 -26 -125l-13 -93c-3 -23 -7 -39 -12 -49c-8 -19 -19 -29 -34 -29c-27 -1 -40 14 -41 43
c-1 17 11 66 34 149c33 117 67 264 102 439z" />
    <glyph glyph-name="mu" unicode="&#x3bc;" horiz-adv-x="569" 
d="M91 429h80c-8 -32 -20 -85 -35 -158c-15 -71 -23 -117 -22 -138c0 -48 26 -72 78 -71c35 0 61 9 79 28c14 15 26 40 35 75c6 24 13 56 22 96l35 168h82c-8 -33 -21 -93 -39 -180c-17 -81 -25 -128 -25 -140c0 -33 17 -49 50 -49c29 3 49 12 60 29c6 8 12 23 18 46
c5 18 12 29 22 32c7 0 10 -5 10 -16c1 -40 -10 -76 -33 -107c-25 -31 -57 -49 -96 -53c-54 1 -81 36 -81 106c-29 -71 -76 -106 -141 -106c-63 0 -104 39 -109 103c-12 -46 -21 -88 -26 -125l-13 -93c-3 -23 -7 -39 -12 -49c-8 -19 -19 -29 -34 -29c-27 -1 -40 14 -41 43
c-1 17 11 66 34 149c33 117 67 264 102 439z" />
    <glyph glyph-name="paragraph" unicode="&#xb6;" 
d="M210 716h255v-41h-59v-675h-52v675h-87v-675h-53v379c-51 1 -93 16 -128 46c-35 31 -53 72 -54 122c0 49 17 90 52 122c35 31 77 47 126 47z" />
    <glyph glyph-name="periodcentered" unicode="&#xb7;" horiz-adv-x="502" 
d="M250 269c-32 0 -62 30 -62 62c0 31 30 62 62 62s62 -31 62 -62c0 -32 -30 -62 -62 -62z" />
    <glyph glyph-name="periodcentered" unicode="&#x2219;" horiz-adv-x="502" 
d="M250 269c-32 0 -62 30 -62 62c0 31 30 62 62 62s62 -31 62 -62c0 -32 -30 -62 -62 -62z" />
    <glyph glyph-name="cedilla" unicode="&#xb8;" 
d="M239 16v-76c85 -1 127 -29 126 -83c-1 -32 -20 -61 -58 -88l-161 28l20 49l121 -24c14 10 21 23 21 39c1 32 -33 48 -102 48l6 28v79h27z" />
    <glyph glyph-name="onesuperior" unicode="&#xb9;" horiz-adv-x="201" 
d="M40 559l-25 -19l-9 8l73 53c32 -19 48 -39 48 -60v-241l25 -21l24 20l10 -7l-70 -60l-67 47l17 18v223c0 13 -9 26 -26 39z" />
    <glyph glyph-name="ordmasculine" unicode="&#xba;" horiz-adv-x="288" 
d="M37 600c39 9 73 28 101 58c40 -29 77 -47 112 -53v-230c-39 -10 -74 -28 -104 -55c-40 28 -83 47 -129 57c13 11 20 30 20 58v165zM104 601v-192l79 -31v191c-31 9 -58 20 -79 32z" />
    <glyph glyph-name="guillemotright" unicode="&#xbb;" horiz-adv-x="456" 
d="M408 229c-54 -61 -97 -116 -129 -167l-60 34l106 133l-107 129l63 37c43 -65 86 -121 127 -166zM236 229c-53 -59 -96 -115 -129 -167l-60 34l106 133l-107 129l63 37c42 -64 84 -119 127 -166z" />
    <glyph glyph-name="onequarter" unicode="&#xbc;" horiz-adv-x="648" 
d="M6 553l69 50c31 -17 46 -37 46 -59v-224l24 -17l23 18l9 -8l-67 -57l-65 48c11 7 17 15 17 24v195c0 18 -8 31 -25 39l-23 -18zM475 604h48l-454 -614h-43zM370 152l150 186c31 -14 46 -32 46 -55v-137h54l12 -40h-66v-53l24 -17l17 13l8 -7l-59 -48l-67 38
c15 13 22 24 22 32v42h-125zM497 286l-110 -134l2 -6h121v121c0 7 -4 14 -13 19z" />
    <glyph glyph-name="onehalf" unicode="&#xbd;" horiz-adv-x="648" 
d="M6 553l69 50c31 -17 46 -37 46 -59v-224l24 -17l23 18l9 -8l-67 -57l-65 48c11 7 17 15 17 24v195c0 18 -8 31 -25 39l-23 -18zM369 258l108 78l133 -72v-21c0 -46 -26 -83 -79 -110c-33 -17 -56 -30 -71 -40c-25 -17 -46 -35 -61 -54c42 15 82 22 121 23
c36 0 67 -7 94 -20l-45 -47c-36 13 -70 20 -103 20c-33 -1 -68 -7 -107 -20c4 29 19 54 45 76l88 74c35 30 53 61 54 92c1 24 -11 44 -34 59l-104 -71zM475 604h48l-454 -614h-43z" />
    <glyph glyph-name="threequarters" unicode="&#xbe;" horiz-adv-x="746" 
d="M26 542l88 59l124 -58l2 -19c-1 -37 -26 -65 -75 -85c60 -17 89 -46 88 -85c-1 -31 -21 -56 -58 -74c-28 -14 -60 -22 -97 -25l-98 77l42 36l118 -89c20 15 30 38 31 69c0 25 -9 46 -27 62c-18 15 -40 22 -66 22h-26v12c31 1 55 8 74 22c21 15 31 38 31 68
c-1 19 -8 29 -23 30c-5 1 -14 -3 -27 -12l-67 -44zM573 604h48l-454 -614h-43zM468 152l150 186c31 -14 46 -32 46 -55v-137h54l12 -40h-66v-53l24 -17l17 13l8 -7l-59 -48l-67 38c15 13 22 23 22 32v42h-125zM595 286l-110 -134l2 -6h121v121c0 7 -4 14 -13 19z" />
    <glyph glyph-name="questiondown" unicode="&#xbf;" horiz-adv-x="346" 
d="M127 151c0 -50 23 -75 70 -75c18 -1 49 8 92 27l-56 -109c-3 0 -11 -1 -24 -3c-10 -1 -18 -2 -24 -2c-43 1 -78 12 -107 33c-31 25 -47 58 -48 99c-1 27 19 75 59 142c42 71 65 133 70 186h24l2 -37c1 -21 -2 -47 -10 -78c-1 -5 -14 -49 -39 -131c-6 -19 -9 -37 -9 -52z
M254 562l-83 -78c-25 33 -50 60 -73 81l82 78c33 -28 57 -55 74 -81z" />
    <glyph glyph-name="Agrave" unicode="&#xc0;" horiz-adv-x="599" 
d="M291 644c57 1 118 -22 183 -68c33 40 70 64 113 71l2 -2c-31 -29 -50 -52 -59 -69c-11 -22 -17 -51 -16 -88l7 -345c0 -29 9 -54 26 -73l34 25l14 -19l-114 -93c-6 5 -15 11 -27 20c-26 26 -40 56 -43 89l-146 -109c-109 61 -168 90 -178 88c-19 -1 -28 -9 -28 -26
c0 -9 10 -32 10 -43c1 -10 -7 -16 -24 -17c-17 1 -25 9 -25 26c-2 17 15 53 52 110c7 11 32 45 73 103c-72 63 -108 126 -108 190c0 67 26 122 78 166c49 41 107 63 176 64zM358 538c-33 17 -68 25 -104 25c-49 -1 -92 -17 -127 -48c-37 -33 -56 -73 -57 -122
c-1 -57 28 -107 86 -149l131 190c-9 15 -23 23 -42 23c-34 0 -60 -16 -77 -49c1 65 46 104 111 105c19 0 37 -4 55 -11zM380 517l-169 -243h197l-4 217l-18 26h-6zM166 205l-38 -53l202 -90l81 64l-1 79h-244zM272 882c43 -60 90 -111 143 -153l-40 -17
c-72 39 -129 87 -172 144z" />
    <glyph glyph-name="Aacute" unicode="&#xc1;" horiz-adv-x="599" 
d="M291 644c57 1 118 -22 183 -68c33 40 70 64 113 71l2 -2c-31 -29 -50 -52 -59 -69c-11 -22 -17 -51 -16 -88l7 -345c0 -29 9 -54 26 -73l34 25l14 -19l-114 -93c-6 5 -15 11 -27 20c-26 26 -40 56 -43 89l-146 -109c-109 61 -168 90 -178 88c-19 -1 -28 -9 -28 -26
c0 -9 10 -32 10 -43c1 -10 -7 -16 -24 -17c-17 1 -25 9 -25 26c-2 17 15 53 52 110c7 11 32 45 73 103c-72 63 -108 126 -108 190c0 67 26 122 78 166c49 41 107 63 176 64zM358 538c-33 17 -68 25 -104 25c-49 -1 -92 -17 -127 -48c-37 -33 -56 -73 -57 -122
c-1 -57 28 -107 86 -149l131 190c-9 15 -23 23 -42 23c-34 0 -60 -16 -77 -49c1 65 46 104 111 105c19 0 37 -4 55 -11zM380 517l-169 -243h197l-4 217l-18 26h-6zM166 205l-38 -53l202 -90l81 64l-1 79h-244zM390 882l69 -26c-42 -57 -99 -105 -172 -144l-39 17
c52 42 99 93 142 153z" />
    <glyph glyph-name="Acircumflex" unicode="&#xc2;" horiz-adv-x="599" 
d="M291 644c57 1 118 -22 183 -68c33 40 70 64 113 71l2 -2c-31 -29 -50 -52 -59 -69c-11 -22 -17 -51 -16 -88l7 -345c0 -29 9 -54 26 -73l34 25l14 -19l-114 -93c-6 5 -15 11 -27 20c-26 26 -40 56 -43 89l-146 -109c-109 61 -168 90 -178 88c-19 -1 -28 -9 -28 -26
c0 -9 10 -32 10 -43c1 -10 -7 -16 -24 -17c-17 1 -25 9 -25 26c-2 17 15 53 52 110c7 11 32 45 73 103c-72 63 -108 126 -108 190c0 67 26 122 78 166c49 41 107 63 176 64zM358 538c-33 17 -68 25 -104 25c-49 -1 -92 -17 -127 -48c-37 -33 -56 -73 -57 -122
c-1 -57 28 -107 86 -149l131 190c-9 15 -23 23 -42 23c-34 0 -60 -16 -77 -49c1 65 46 104 111 105c19 0 37 -4 55 -11zM211 274h197l-4 217l-18 26h-6zM166 205l-38 -53l202 -90l81 64l-1 79h-244zM206 712l-16 16c34 38 70 89 107 152h48c31 -54 67 -105 108 -152l-15 -16
c-48 27 -87 61 -117 101c-33 -44 -72 -78 -115 -101z" />
    <glyph glyph-name="Atilde" unicode="&#xc3;" horiz-adv-x="599" 
d="M291 644c57 1 118 -22 183 -68c33 40 70 64 113 71l2 -2c-31 -29 -50 -52 -59 -69c-11 -22 -17 -51 -16 -88l7 -345c0 -29 9 -54 26 -73l34 25l14 -19l-114 -93c-6 5 -15 11 -27 20c-26 26 -40 56 -43 89l-146 -109c-109 61 -168 90 -178 88c-19 -1 -28 -9 -28 -26
c0 -9 10 -32 10 -43c1 -10 -7 -16 -24 -17c-17 1 -25 9 -25 26c-2 17 15 53 52 110c7 11 32 45 73 103c-72 63 -108 126 -108 190c0 67 26 122 78 166c49 41 107 63 176 64zM358 538c-33 17 -68 25 -104 25c-49 -1 -92 -17 -127 -48c-37 -33 -56 -73 -57 -122
c-1 -57 28 -107 86 -149l131 190c-9 15 -23 23 -42 23c-34 0 -60 -16 -77 -49c1 65 46 104 111 105c19 0 37 -4 55 -11zM380 517l-169 -243h197l-4 217l-18 26h-6zM166 205l-38 -53l202 -90l81 64l-1 79h-244zM264 841c16 -1 39 -5 70 -14c31 -8 55 -12 71 -13
c11 0 18 2 23 7c3 3 7 11 12 23l21 -8c-14 -31 -23 -49 -28 -56c-14 -20 -31 -30 -52 -29c-16 1 -40 6 -72 15s-57 13 -74 14c-13 1 -24 -9 -33 -30l-20 6c11 29 21 48 28 58c15 19 33 28 54 27z" />
    <glyph glyph-name="Adieresis" unicode="&#xc4;" horiz-adv-x="599" 
d="M291 644c57 1 118 -22 183 -68c33 40 70 64 113 71l2 -2c-31 -29 -50 -52 -59 -69c-11 -22 -17 -51 -16 -88l7 -345c0 -29 9 -54 26 -73l34 25l14 -19l-114 -93c-6 5 -15 11 -27 20c-26 26 -40 56 -43 89l-146 -109c-109 61 -168 90 -178 88c-19 -1 -28 -9 -28 -26
c0 -9 10 -32 10 -43c1 -10 -7 -16 -24 -17c-17 1 -25 9 -25 26c-2 17 15 53 52 110c7 11 32 45 73 103c-72 63 -108 126 -108 190c0 67 26 122 78 166c49 41 107 63 176 64zM358 538c-33 17 -68 25 -104 25c-49 -1 -92 -17 -127 -48c-37 -33 -56 -73 -57 -122
c-1 -57 28 -107 86 -149l131 190c-9 15 -23 23 -42 23c-34 0 -60 -16 -77 -49c1 65 46 104 111 105c19 0 37 -4 55 -11zM380 517l-169 -243h197l-4 217l-18 26h-6zM166 205l-38 -53l202 -90l81 64l-1 79h-244zM237 860l59 -64l-64 -61l-59 64zM404 860l59 -64l-64 -61
l-59 64z" />
    <glyph glyph-name="Aring" unicode="&#xc5;" horiz-adv-x="599" 
d="M291 642c57 1 118 -22 183 -68c33 40 70 64 113 72l2 -3c-31 -29 -50 -52 -59 -69c-11 -21 -17 -51 -16 -88l7 -345c0 -30 9 -54 26 -73l34 24l14 -18l-114 -93c-6 5 -15 11 -27 20c-26 27 -40 56 -43 89l-146 -109c-109 61 -168 90 -178 88c-19 -1 -28 -9 -28 -26
c0 -9 10 -32 10 -43c1 -10 -7 -16 -24 -17c-17 1 -25 9 -25 25c-2 19 15 56 52 111l73 103c-72 63 -108 126 -108 190c0 67 26 122 78 166c49 41 107 63 176 64zM358 536c-33 17 -68 25 -104 25c-49 -1 -92 -17 -127 -48c-37 -33 -56 -73 -57 -122c-1 -57 28 -107 86 -149
l131 190c-9 15 -23 23 -42 23c-34 0 -60 -17 -77 -50c1 65 46 105 111 106c19 0 37 -4 55 -11zM380 515l-169 -243h197l-4 216l-18 27h-6zM166 203l-38 -53l202 -90l81 65l-1 78h-244zM358 919c33 0 62 -12 85 -35c24 -23 36 -52 36 -85s-12 -61 -36 -85
c-24 -23 -52 -35 -85 -35c-32 0 -60 12 -85 35c-24 24 -36 52 -36 85s12 61 36 84c25 24 53 36 85 36zM358 873c-39 0 -72 -34 -72 -74c0 -39 32 -72 72 -73c41 1 74 34 74 73c0 40 -34 74 -74 74z" />
    <glyph glyph-name="AE" unicode="&#xc6;" horiz-adv-x="901" 
d="M534 477l170 166c27 -21 56 -36 87 -43c23 -5 55 -8 98 -8l-117 -148h90l-47 -100h-131v-276c71 0 139 30 202 91l6 -5c-49 -114 -130 -171 -243 -171c-93 0 -167 44 -222 133l-168 -132l-91 50c-47 26 -76 39 -88 40c-18 -1 -27 -10 -28 -29c3 -8 7 -21 11 -39
c0 -13 -8 -20 -23 -21c-17 1 -26 10 -27 28c0 19 16 55 49 106c3 4 26 38 71 101c-64 69 -96 137 -96 203c0 63 22 116 65 158s96 63 159 64c54 0 113 -23 177 -70c39 47 86 70 140 71l2 -5c-44 -23 -75 -55 -92 -94c-14 -31 -21 -75 -21 -130c0 -35 3 -75 8 -122
c6 -51 19 -92 40 -125c13 13 19 26 19 41v266zM662 560l-41 -44v-193c0 -33 -6 -61 -17 -82c-13 -25 -40 -55 -80 -92c23 -39 69 -65 138 -78v489zM684 538v-173l99 129zM344 529c-37 27 -74 40 -111 39c-44 0 -82 -16 -114 -48c-31 -32 -47 -70 -48 -115
c-1 -59 24 -114 74 -167l135 200c-6 15 -21 22 -44 22c-31 1 -56 -15 -75 -48c3 61 46 105 107 106c22 0 42 -3 60 -10zM364 508l-158 -231h167l-3 73c-1 15 1 37 6 68c3 25 7 45 11 61zM159 208l-37 -54l201 -91l92 75c-14 20 -23 43 -27 70h-229z" />
    <glyph glyph-name="Ccedilla" unicode="&#xc7;" horiz-adv-x="588" 
d="M105 352c0 -73 19 -132 56 -177c8 13 12 26 12 38v266l193 164c60 -37 126 -56 197 -57l-88 -96c-45 19 -90 36 -137 51v-465c9 0 33 -3 42 -3c69 -1 135 30 197 91l8 -5c-59 -117 -145 -175 -259 -175h-22v-44c85 -1 127 -29 126 -84c0 -33 -20 -62 -59 -87l-160 28
l19 49l123 -24c13 12 20 24 20 36c1 21 -12 36 -38 44c-15 5 -36 8 -63 7l5 29v49c-77 5 -139 36 -187 93c-46 55 -69 121 -70 199c-1 65 17 126 54 183c37 59 86 99 147 119l3 -3c-79 -62 -119 -137 -119 -226zM316 558l-42 -37v-193c0 -37 -9 -69 -28 -97
c-13 -19 -36 -43 -71 -73c39 -41 86 -67 141 -77v477z" />
    <glyph glyph-name="Egrave" unicode="&#xc8;" horiz-adv-x="588" 
d="M363 643c36 -22 70 -36 102 -43c27 -5 64 -8 112 -8l-136 -148h106l-50 -103l-157 1v-265l41 -4c67 1 132 31 197 91l6 -5c-59 -117 -148 -175 -267 -175c-87 0 -158 27 -213 81c-55 55 -83 126 -84 213c-1 66 17 127 54 184s86 97 147 120l3 -4
c-82 -60 -123 -136 -122 -228c1 -69 20 -127 59 -175c8 13 12 26 12 39v265zM274 522v-193c0 -36 -9 -68 -28 -97c-14 -21 -37 -45 -70 -73c35 -39 82 -66 141 -79v478zM339 538v-169l115 125zM273 882c43 -60 90 -111 142 -153l-39 -17c-73 39 -130 87 -173 144z" />
    <glyph glyph-name="Eacute" unicode="&#xc9;" horiz-adv-x="588" 
d="M363 643c36 -22 70 -36 102 -43c27 -5 64 -8 112 -8l-136 -148h106l-50 -103l-157 1v-265l41 -4c67 1 132 31 197 91l6 -5c-59 -117 -148 -175 -267 -175c-87 0 -158 27 -213 81c-55 55 -83 126 -84 213c-1 66 17 127 54 184s86 97 147 120l3 -4
c-82 -60 -123 -136 -122 -228c1 -69 20 -127 59 -175c8 13 12 26 12 39v265zM274 522v-193c0 -36 -9 -68 -28 -97c-14 -21 -37 -45 -70 -73c35 -39 82 -66 141 -79v478zM339 538v-169l115 125zM390 882l70 -26c-43 -57 -100 -105 -173 -144l-39 17c52 42 99 93 142 153z" />
    <glyph glyph-name="Ecircumflex" unicode="&#xca;" horiz-adv-x="588" 
d="M363 643c36 -22 70 -36 102 -43c27 -5 64 -8 112 -8l-136 -148h106l-50 -103l-157 1v-265l41 -4c67 1 132 31 197 91l6 -5c-59 -117 -148 -175 -267 -175c-87 0 -158 27 -213 81c-55 55 -83 126 -84 213c-1 66 17 127 54 184s86 97 147 120l3 -4
c-82 -60 -123 -136 -122 -228c1 -69 20 -127 59 -175c8 13 12 26 12 39v265zM274 522v-193c0 -36 -9 -68 -28 -97c-14 -21 -37 -45 -70 -73c35 -39 82 -66 141 -79v478zM339 538v-169l115 125zM206 712l-15 16c33 38 69 89 107 152h48c31 -55 66 -106 107 -152l-15 -16
c-47 27 -86 61 -116 101c-33 -44 -72 -78 -116 -101z" />
    <glyph glyph-name="Edieresis" unicode="&#xcb;" horiz-adv-x="588" 
d="M363 643c36 -22 70 -36 102 -43c27 -5 64 -8 112 -8l-136 -148h106l-50 -103l-157 1v-265l41 -4c67 1 132 31 197 91l6 -5c-59 -117 -148 -175 -267 -175c-87 0 -158 27 -213 81c-55 55 -83 126 -84 213c-1 66 17 127 54 184s86 97 147 120l3 -4
c-82 -60 -123 -136 -122 -228c1 -69 20 -127 59 -175c8 13 12 26 12 39v265zM274 329c0 -36 -9 -68 -28 -97c-14 -21 -37 -45 -70 -73c35 -39 82 -66 141 -79v478l-43 -36v-193zM339 538v-169l115 125zM174 799l64 61l59 -64l-64 -61c-15 15 -34 36 -59 64zM341 799l64 61
l59 -64l-64 -61c-15 15 -34 36 -59 64z" />
    <glyph glyph-name="Igrave" unicode="&#xcc;" horiz-adv-x="475" 
d="M151 390c1 76 30 143 88 202c-29 -15 -58 -22 -87 -22c-18 4 -45 8 -82 12c-22 0 -41 -15 -56 -45l-9 2c7 30 21 54 40 73c21 21 47 32 76 32c13 0 32 -2 57 -6s43 -6 55 -7c23 -1 51 4 83 15l4 -6c-55 -43 -82 -105 -81 -186c0 -30 4 -74 11 -132s11 -102 12 -131
c1 -65 -34 -98 -106 -99c42 -44 79 -67 111 -68c22 -1 38 7 47 22c9 12 13 30 12 53c-1 35 -6 92 -17 170c-11 84 -17 145 -18 182c-1 55 10 99 31 132c25 40 64 60 117 60v-10c-43 -10 -63 -35 -62 -74c1 -61 8 -122 19 -183c13 -68 19 -127 19 -176
c0 -58 -13 -107 -39 -147c-31 -47 -73 -69 -128 -68c-27 1 -60 8 -101 23c-42 15 -75 24 -98 25c-27 1 -50 -15 -69 -50l-6 1c1 36 11 66 30 89c22 26 51 39 86 39c7 0 22 -2 27 -2c27 -1 46 7 55 23c7 12 10 33 10 62c0 85 -27 126 -82 125c-23 0 -48 -5 -74 -16
c8 48 56 86 105 86h20zM214 882c43 -60 90 -111 142 -153l-39 -17c-73 39 -130 87 -173 144z" />
    <glyph glyph-name="Iacute" unicode="&#xcd;" horiz-adv-x="475" 
d="M131 390h20c1 76 30 143 88 202c-29 -15 -58 -22 -87 -22c-18 4 -45 8 -82 12c-22 0 -41 -15 -56 -45l-9 2c7 30 21 54 40 73c21 21 47 32 76 32c13 0 32 -2 57 -6s43 -6 55 -7c23 -1 51 4 83 15l4 -6c-55 -43 -82 -105 -81 -186c0 -30 4 -74 11 -132s11 -102 12 -131
c1 -65 -34 -98 -106 -99c42 -44 79 -67 111 -68c22 -1 38 7 47 22c9 12 13 30 12 53c-1 35 -6 92 -17 170c-11 84 -17 145 -18 182c-1 55 10 99 31 132c25 40 64 60 117 60v-10c-43 -10 -63 -35 -62 -74c1 -61 8 -122 19 -183c13 -68 19 -127 19 -176
c0 -58 -13 -107 -39 -147c-31 -47 -73 -69 -128 -68c-27 1 -60 8 -101 23c-42 15 -75 24 -98 25c-27 1 -50 -15 -69 -50l-6 1c1 36 11 66 30 89c22 26 51 39 86 39c7 0 22 -2 27 -2c27 -1 46 7 55 23c7 12 10 33 10 62c0 85 -27 126 -82 125c-23 0 -48 -5 -74 -16
c8 48 56 86 105 86zM332 882l70 -26c-43 -57 -100 -105 -173 -144l-39 17c52 42 99 93 142 153z" />
    <glyph glyph-name="Icircumflex" unicode="&#xce;" horiz-adv-x="475" 
d="M264 813c-34 -45 -73 -78 -116 -101l-15 16c32 36 68 87 107 152h48c31 -55 66 -106 107 -152l-15 -16c-47 27 -85 60 -116 101zM131 390h20c1 76 30 143 88 202c-29 -15 -58 -22 -87 -22c-18 4 -45 8 -82 12c-22 0 -41 -15 -56 -45l-9 2c7 30 21 54 40 73
c21 21 47 32 76 32c13 0 32 -2 57 -6s43 -6 55 -7c23 -1 51 4 83 15l4 -6c-55 -43 -82 -105 -81 -186c0 -30 4 -74 11 -132s11 -102 12 -131c1 -65 -34 -98 -106 -99c42 -44 79 -67 111 -68c22 -1 38 7 47 22c9 12 13 30 12 53c-1 35 -6 92 -17 170c-11 84 -17 145 -18 182
c-1 55 10 99 31 132c25 40 64 60 117 60v-10c-43 -10 -63 -35 -62 -74c1 -61 8 -122 19 -183c13 -68 19 -127 19 -176c0 -58 -13 -107 -39 -147c-31 -47 -73 -69 -128 -68c-27 1 -60 8 -101 23c-42 15 -75 24 -98 25c-27 1 -50 -15 -69 -50l-6 1c1 36 11 66 30 89
c22 26 51 39 86 39c7 0 22 -2 27 -2c27 -1 46 7 55 23c7 12 10 33 10 62c0 85 -27 126 -82 125c-23 0 -48 -5 -74 -16c8 48 56 86 105 86z" />
    <glyph glyph-name="Idieresis" unicode="&#xcf;" horiz-adv-x="475" 
d="M151 390c1 76 30 143 88 202c-29 -15 -58 -22 -87 -22c-18 4 -45 8 -82 12c-22 0 -41 -15 -56 -45l-9 2c7 30 21 54 40 73c21 21 47 32 76 32c13 0 32 -2 57 -6s43 -6 55 -7c23 -1 51 4 83 15l4 -6c-55 -43 -82 -105 -81 -186c0 -30 4 -74 11 -132s11 -102 12 -131
c1 -65 -34 -98 -106 -99c42 -44 79 -67 111 -68c22 -1 38 7 47 22c9 12 13 30 12 53c-1 35 -6 92 -17 170c-11 84 -17 145 -18 182c-1 55 10 99 31 132c25 40 64 60 117 60v-10c-43 -10 -63 -35 -62 -74c1 -61 8 -122 19 -183c13 -68 19 -127 19 -176
c0 -58 -13 -107 -39 -147c-31 -47 -73 -69 -128 -68c-27 1 -60 8 -101 23c-42 15 -75 24 -98 25c-27 1 -50 -15 -69 -50l-6 1c1 36 11 66 30 89c22 26 51 39 86 39c7 0 22 -2 27 -2c27 -1 46 7 55 23c7 12 10 33 10 62c0 85 -27 126 -82 125c-23 0 -48 -5 -74 -16
c8 48 56 86 105 86h20zM116 799l64 61l59 -64l-64 -61c-17 17 -36 39 -59 64zM283 799l64 61l59 -64l-64 -61c-17 17 -36 39 -59 64z" />
    <glyph glyph-name="Eth" unicode="&#xd0;" horiz-adv-x="752" 
d="M27 674c14 -37 47 -56 99 -55c31 0 78 3 139 8c62 5 108 8 139 9c45 1 81 -2 108 -9c38 -9 69 -25 93 -50c64 -68 96 -184 96 -348v-69v-33l-1 -33c-52 -19 -106 -54 -161 -106c-87 30 -168 45 -243 44c-85 -1 -172 -28 -260 -81l-9 12c31 21 72 48 124 79
c47 30 82 56 104 77c39 38 59 83 59 135v52h-60v-35c0 -61 -22 -113 -67 -158c-35 -35 -86 -75 -153 -119l-7 6c51 42 84 87 99 136c12 35 18 91 19 170h-145l6 39h143c13 75 61 135 143 180c-11 -1 -33 -1 -66 -2l-71 -2c-41 -1 -74 11 -99 38s-37 57 -36 90l1 25h6z
M314 430c0 38 7 70 22 97c-55 -17 -82 -51 -82 -104v-78h60v85zM383 530h-20c-18 -25 -27 -56 -27 -94v-91h47v185zM591 191c1 161 -17 261 -56 300c-24 24 -57 37 -99 38l-31 1v-185h87l-6 -39h-81l1 -175c51 -2 112 -13 183 -33c0 11 0 26 1 47s1 37 1 46zM383 306h-47
v-54c0 -48 -13 -88 -38 -120c22 3 35 4 39 4c11 0 35 -4 46 -4v174z" />
    <glyph glyph-name="Ntilde" unicode="&#xd1;" horiz-adv-x="708" 
d="M438 643c143 -41 216 -118 217 -233c1 -89 -49 -197 -150 -322c25 8 50 12 75 12c15 0 43 -4 82 -13l17 24l19 -10l-68 -116c-29 10 -59 15 -90 15c-53 0 -93 -23 -122 -70l-8 8c5 39 21 88 50 148c22 45 44 93 67 146c-25 25 -53 37 -85 37c-24 -1 -54 -12 -91 -35v-110
c0 -51 -17 -96 -50 -135c-35 -43 -78 -64 -128 -63c-26 0 -55 6 -88 17c-29 10 -52 15 -69 16c-18 1 -39 -5 -63 -17l-3 4c31 51 71 77 120 76c10 0 25 -1 46 -3s36 -3 47 -3c45 0 68 20 67 60c-1 28 -13 50 -36 65c-20 14 -45 21 -75 21c-8 0 -29 -3 -37 -3
c20 26 43 39 70 40c5 0 21 -2 48 -7c-15 58 -50 87 -107 88c-8 0 -19 -1 -33 -3c15 25 36 38 64 38c24 0 50 -7 77 -21c-13 69 -60 105 -141 106c19 22 41 33 68 33c20 -1 44 -6 72 -16v80zM291 522v-356c0 -83 -24 -136 -71 -160c5 0 17 -1 22 -1c29 1 52 17 68 46
c13 23 19 51 19 83v408zM351 543v-129c36 -26 70 -39 102 -40c31 -1 61 13 90 42c-12 38 -37 69 -76 92c-33 20 -72 32 -116 35zM351 390v-133c31 21 63 32 95 32c31 0 60 -11 87 -32c14 32 21 65 21 99c1 14 -1 26 -5 37c-31 -27 -64 -40 -100 -39c-33 0 -65 12 -98 36z
M347 841c16 -1 39 -5 70 -14c31 -8 55 -12 72 -13c10 0 18 2 23 7c3 3 7 11 12 23l21 -8c-15 -31 -24 -49 -28 -56c-15 -20 -32 -30 -52 -29c-17 1 -41 6 -73 15s-56 13 -73 14c-13 1 -25 -9 -34 -30l-20 6c12 29 22 48 29 58c14 19 32 28 53 27z" />
    <glyph glyph-name="Ograve" unicode="&#xd2;" horiz-adv-x="698" 
d="M369 659c85 -9 156 -35 211 -76c66 -50 98 -115 95 -194c-3 -91 -49 -178 -137 -262c-87 -83 -176 -126 -267 -127c-73 -2 -134 27 -183 88c-44 55 -66 121 -67 197c-1 43 12 101 37 175c68 46 172 112 311 199zM198 524c-55 -56 -82 -119 -81 -190
c1 -63 18 -116 53 -161c19 24 28 47 28 69v282zM284 571v-262c0 -27 -11 -55 -34 -86c-12 -15 -34 -39 -65 -70c50 -45 96 -68 137 -69v487h-38zM346 569v-113c33 -30 67 -45 100 -45c37 -1 69 15 95 46c-35 64 -100 101 -195 112zM346 252v-168c44 1 86 18 125 51
c34 28 62 64 83 109c-23 39 -58 59 -103 59c-36 0 -71 -17 -105 -51zM346 284c34 25 69 37 105 37c44 1 82 -16 113 -50c10 23 15 43 15 62c1 45 -8 79 -26 103c-35 -30 -72 -45 -111 -44c-29 0 -61 10 -96 31v-139zM281 882c43 -60 90 -111 142 -153l-39 -17
c-73 39 -130 87 -173 144z" />
    <glyph glyph-name="Oacute" unicode="&#xd3;" horiz-adv-x="698" 
d="M369 659c85 -9 156 -35 211 -76c66 -50 98 -115 95 -194c-3 -91 -49 -178 -137 -262c-87 -83 -176 -126 -267 -127c-73 -2 -134 27 -183 88c-44 55 -66 121 -67 197c-1 43 12 101 37 175c68 46 172 112 311 199zM198 524c-55 -56 -82 -119 -81 -190
c1 -63 18 -116 53 -161c19 24 28 47 28 69v282zM284 571v-262c0 -27 -11 -55 -34 -86c-12 -15 -34 -39 -65 -70c50 -45 96 -68 137 -69v487h-38zM346 569v-113c33 -30 67 -45 100 -45c37 -1 69 15 95 46c-35 64 -100 101 -195 112zM346 252v-168c44 1 86 18 125 51
c34 28 62 64 83 109c-23 39 -58 59 -103 59c-36 0 -71 -17 -105 -51zM346 284c34 25 69 37 105 37c44 1 82 -16 113 -50c10 23 15 43 15 62c1 45 -8 79 -26 103c-35 -30 -72 -45 -111 -44c-29 0 -61 10 -96 31v-139zM398 882l70 -26c-43 -57 -101 -105 -173 -144l-39 17
c52 42 99 93 142 153z" />
    <glyph glyph-name="Ocircumflex" unicode="&#xd4;" horiz-adv-x="698" 
d="M369 659c85 -9 156 -35 211 -76c66 -50 98 -115 95 -194c-3 -91 -49 -178 -137 -262c-87 -83 -176 -126 -267 -127c-73 -2 -134 27 -183 88c-44 55 -66 121 -67 197c-1 43 12 101 37 175c68 46 172 112 311 199zM198 524c-55 -56 -82 -119 -81 -190
c1 -63 18 -116 53 -161c19 24 28 47 28 69v282zM284 571v-262c0 -27 -11 -55 -34 -86c-12 -15 -34 -39 -65 -70c50 -45 96 -68 137 -69v487h-38zM346 569v-113c33 -30 67 -45 100 -45c37 -1 69 15 95 46c-35 64 -100 101 -195 112zM346 252v-168c44 1 86 18 125 51
c34 28 62 64 83 109c-23 39 -58 59 -103 59c-36 0 -71 -17 -105 -51zM346 284c34 25 69 37 105 37c44 1 82 -16 113 -50c10 23 15 43 15 62c1 45 -8 79 -26 103c-35 -30 -72 -45 -111 -44c-29 0 -61 10 -96 31v-139zM214 712l-15 16c33 37 68 88 107 152h48
c31 -55 66 -106 107 -152l-15 -16c-47 27 -86 60 -116 101c-34 -45 -73 -78 -116 -101z" />
    <glyph glyph-name="Otilde" unicode="&#xd5;" horiz-adv-x="698" 
d="M369 659c85 -9 156 -35 211 -76c66 -50 98 -115 95 -194c-3 -91 -49 -178 -137 -262c-87 -83 -176 -126 -267 -127c-73 -2 -134 27 -183 88c-44 55 -66 121 -67 197c-1 43 12 101 37 175c68 46 172 112 311 199zM198 524c-55 -56 -82 -119 -81 -190
c1 -63 18 -116 53 -161c19 24 28 47 28 69v282zM284 571v-262c0 -27 -11 -55 -34 -86c-12 -15 -34 -39 -65 -70c50 -45 96 -68 137 -69v487h-38zM346 569v-113c33 -30 67 -45 100 -45c37 -1 69 15 95 46c-35 64 -100 101 -195 112zM346 252v-168c44 1 86 18 125 51
c34 28 62 64 83 109c-23 39 -58 59 -103 59c-36 0 -71 -17 -105 -51zM346 284c34 25 69 37 105 37c44 1 82 -16 113 -50c10 23 15 43 15 62c1 45 -8 79 -26 103c-35 -30 -72 -45 -111 -44c-29 0 -61 10 -96 31v-139zM272 841c16 -1 40 -5 71 -14c31 -8 55 -12 71 -13
c11 0 18 2 23 7c3 3 7 11 12 23l21 -8c-14 -31 -23 -49 -28 -56c-15 -20 -32 -30 -52 -29c-16 1 -40 6 -72 15s-57 13 -74 14c-13 1 -24 -9 -34 -30l-20 6c13 30 22 49 29 58c14 19 32 28 53 27z" />
    <glyph glyph-name="Odieresis" unicode="&#xd6;" horiz-adv-x="698" 
d="M369 659c85 -9 156 -35 211 -76c66 -50 98 -115 95 -194c-3 -91 -49 -178 -137 -262c-87 -83 -176 -126 -267 -127c-73 -2 -134 27 -183 88c-44 55 -66 121 -67 197c-1 43 12 101 37 175c68 46 172 112 311 199zM198 524c-55 -56 -82 -119 -81 -190
c1 -63 18 -116 53 -161c19 24 28 47 28 69v282zM284 571v-262c0 -27 -11 -55 -34 -86c-12 -15 -34 -39 -65 -70c50 -45 96 -68 137 -69v487h-38zM346 569v-113c33 -30 67 -45 100 -45c37 -1 69 15 95 46c-35 64 -100 101 -195 112zM346 252v-168c44 1 86 18 125 51
c34 28 62 64 83 109c-23 39 -58 59 -103 59c-36 0 -71 -17 -105 -51zM346 284c34 25 69 37 105 37c44 1 82 -16 113 -50c10 23 15 43 15 62c1 45 -8 79 -26 103c-35 -30 -72 -45 -111 -44c-29 0 -61 10 -96 31v-139zM246 860l59 -64l-64 -61l-59 64zM413 860l59 -64l-64 -61
l-59 64z" />
    <glyph glyph-name="multiply" unicode="&#xd7;" horiz-adv-x="830" 
d="M143 523l47 47l228 -228l228 228l47 -47l-228 -228l228 -228l-47 -46l-228 228l-228 -228l-47 46l228 228z" />
    <glyph glyph-name="Oslash" unicode="&#xd8;" horiz-adv-x="698" 
d="M367 645c54 -3 108 -17 161 -42l62 63h52l-79 -83c78 -59 115 -128 112 -208c-4 -93 -50 -180 -137 -263c-87 -81 -176 -124 -269 -127c-61 -3 -115 18 -164 61l-69 -75h-48l90 105c-38 54 -57 120 -57 197c0 47 12 105 35 173c101 67 204 134 311 199zM193 511
c-57 -49 -84 -114 -82 -196c1 -57 17 -106 46 -147c24 29 36 54 36 76v267zM271 303l51 57v198c-12 0 -40 -1 -51 -1v-254zM322 70v229l-142 -158c47 -47 95 -71 142 -71zM344 556v-170l114 135c-41 23 -79 34 -114 35zM344 327v-57c35 25 70 37 105 38c44 0 82 -17 115 -52
c10 21 15 44 15 71c1 35 -8 67 -26 95c-34 -30 -72 -45 -113 -45c-4 0 -19 3 -45 9zM444 396c39 1 72 16 97 46c-11 21 -27 40 -49 58l-83 -97c15 -5 26 -7 35 -7zM344 238v-168c44 1 86 18 125 51c34 29 62 65 83 108c-23 39 -57 59 -102 59c-37 -1 -73 -17 -106 -50z" />
    <glyph glyph-name="Ugrave" unicode="&#xd9;" horiz-adv-x="756" 
d="M306 575c-37 -11 -68 -16 -91 -16c-7 0 -17 0 -30 1c-15 1 -25 2 -31 2c-62 1 -106 -32 -131 -98h-11c1 49 11 90 31 122c25 38 60 57 106 57c19 0 46 -4 81 -12c37 -8 65 -12 83 -12c26 -1 49 7 70 24h22v-239c24 -14 49 -21 75 -21c22 0 46 7 71 21v119l-41 28l-34 -37
l-16 11l99 118l90 -61l49 41l8 -7c-27 -37 -41 -71 -41 -104v-382c0 -34 7 -57 20 -70l28 27l15 -14l-91 -89h-18c-38 31 -60 71 -66 121c-80 -82 -162 -122 -247 -121c-73 1 -133 26 -179 76c-45 49 -67 110 -68 184c0 70 25 136 76 198c44 53 101 97 171 133zM336 570
c-52 -25 -94 -61 -125 -110s-47 -102 -48 -159c-1 -66 18 -121 56 -164c23 22 35 52 35 91v183c0 55 27 108 82 159zM383 610c-25 -28 -38 -58 -38 -91v-237c0 -53 -37 -106 -112 -159c23 -19 46 -31 70 -37c19 -5 46 -7 80 -7v531zM405 382v-103c23 13 48 19 76 19
c23 0 46 -6 70 -18v102c-24 -13 -48 -19 -73 -19c-27 1 -51 7 -73 19zM480 279c-25 1 -50 -7 -75 -22v-176c45 0 110 26 146 55v121c-23 15 -46 22 -71 22zM372 882c43 -60 90 -111 142 -153l-39 -17c-71 39 -129 87 -173 144z" />
    <glyph glyph-name="Uacute" unicode="&#xda;" horiz-adv-x="756" 
d="M306 575c-37 -11 -68 -16 -91 -16c-7 0 -17 0 -30 1c-15 1 -25 2 -31 2c-62 1 -106 -32 -131 -98h-11c1 49 11 90 31 122c25 38 60 57 106 57c19 0 46 -4 81 -12c37 -8 65 -12 83 -12c26 -1 49 7 70 24h22v-239c24 -14 49 -21 75 -21c22 0 46 7 71 21v119l-41 28l-34 -37
l-16 11l99 118l90 -61l49 41l8 -7c-27 -37 -41 -71 -41 -104v-382c0 -34 7 -57 20 -70l28 27l15 -14l-91 -89h-18c-38 31 -60 71 -66 121c-80 -82 -162 -122 -247 -121c-73 1 -133 26 -179 76c-45 49 -67 110 -68 184c0 70 25 136 76 198c44 53 101 97 171 133zM336 570
c-52 -25 -94 -61 -125 -110s-47 -102 -48 -159c-1 -66 18 -121 56 -164c23 22 35 52 35 91v183c0 55 27 108 82 159zM383 610c-25 -28 -38 -58 -38 -91v-237c0 -53 -37 -106 -112 -159c23 -19 46 -31 70 -37c19 -5 46 -7 80 -7v531zM405 382v-103c23 13 48 19 76 19
c23 0 46 -6 70 -18v102c-24 -13 -48 -19 -73 -19c-27 1 -51 7 -73 19zM480 279c-25 1 -50 -7 -75 -22v-176c45 0 110 26 146 55v121c-23 15 -46 22 -71 22zM489 882l70 -26c-43 -57 -100 -105 -173 -144l-39 17c51 41 99 92 142 153z" />
    <glyph glyph-name="Ucircumflex" unicode="&#xdb;" horiz-adv-x="756" 
d="M397 880h48c29 -53 65 -103 107 -152l-15 -16c-47 27 -86 61 -116 101c-33 -44 -72 -78 -116 -101l-15 16c33 38 69 89 107 152zM306 575c-37 -11 -68 -16 -91 -16c-7 0 -17 0 -30 1c-15 1 -25 2 -31 2c-62 1 -106 -32 -131 -98h-11c1 49 11 90 31 122
c25 38 60 57 106 57c19 0 46 -4 81 -12c37 -8 65 -12 83 -12c26 -1 49 7 70 24h22v-239c24 -14 49 -21 75 -21c22 0 46 7 71 21v119l-41 28l-34 -37l-16 11l99 118l90 -61l49 41l8 -7c-27 -37 -41 -71 -41 -104v-382c0 -34 7 -57 20 -70l28 27l15 -14l-91 -89h-18
c-38 31 -60 71 -66 121c-80 -82 -162 -122 -247 -121c-73 1 -133 26 -179 76c-45 49 -67 110 -68 184c0 70 25 136 76 198c44 53 101 97 171 133zM336 570c-52 -25 -94 -61 -125 -110s-47 -102 -48 -159c-1 -66 18 -121 56 -164c23 22 35 52 35 91v183c0 55 27 108 82 159z
M383 610c-25 -28 -38 -58 -38 -91v-237c0 -53 -37 -106 -112 -159c23 -19 46 -31 70 -37c19 -5 46 -7 80 -7v531zM405 382v-103c23 13 48 19 76 19c23 0 46 -6 70 -18v102c-24 -13 -48 -19 -73 -19c-27 1 -51 7 -73 19zM480 279c-25 1 -50 -7 -75 -22v-176
c45 0 110 26 146 55v121c-23 15 -46 22 -71 22z" />
    <glyph glyph-name="Udieresis" unicode="&#xdc;" horiz-adv-x="756" 
d="M306 575c-37 -11 -68 -16 -91 -16c-7 0 -17 0 -30 1c-15 1 -25 2 -31 2c-62 1 -106 -32 -131 -98h-11c1 49 11 90 31 122c25 38 60 57 106 57c19 0 46 -4 81 -12c37 -8 65 -12 83 -12c26 -1 49 7 70 24h22v-239c24 -14 49 -21 75 -21c22 0 46 7 71 21v119l-41 28l-34 -37
l-16 11l99 118l90 -61l49 41l8 -7c-27 -37 -41 -71 -41 -104v-382c0 -34 7 -57 20 -70l28 27l15 -14l-91 -89h-18c-38 31 -60 71 -66 121c-80 -82 -162 -122 -247 -121c-73 1 -133 26 -179 76c-45 49 -67 110 -68 184c0 70 25 136 76 198c44 53 101 97 171 133zM336 570
c-52 -25 -94 -61 -125 -110s-47 -102 -48 -159c-1 -66 18 -121 56 -164c23 22 35 52 35 91v183c0 55 27 108 82 159zM383 610c-25 -28 -38 -58 -38 -91v-237c0 -53 -37 -106 -112 -159c23 -19 46 -31 70 -37c19 -5 46 -7 80 -7v531zM405 382v-103c23 13 48 19 76 19
c23 0 46 -6 70 -18v102c-24 -13 -48 -19 -73 -19c-27 1 -51 7 -73 19zM480 279c-25 1 -50 -7 -75 -22v-176c45 0 110 26 146 55v121c-23 15 -46 22 -71 22zM337 860l59 -64l-64 -61l-59 64zM440 799l64 61l59 -64l-64 -61z" />
    <glyph glyph-name="Yacute" unicode="&#xdd;" horiz-adv-x="671" 
d="M59 621c25 13 50 20 76 21c64 0 114 -35 127 -96c69 50 129 75 182 75c60 0 106 -25 137 -74c27 -43 40 -95 39 -158c-1 -87 -22 -156 -61 -207c-44 -56 -108 -84 -193 -84h-182c-39 0 -72 -6 -97 -19c-33 -17 -50 -43 -49 -79c1 -49 37 -84 88 -84c15 0 33 4 54 11
c35 17 76 33 123 50c20 7 46 11 77 11c28 0 51 -7 70 -21c21 -15 31 -36 32 -63c0 -27 -14 -42 -43 -43c-23 1 -35 14 -36 39c1 12 15 36 16 45c0 9 -6 14 -18 13c-10 0 -44 -16 -101 -48c-61 -34 -110 -51 -146 -50c-39 0 -72 13 -99 38c-28 27 -42 59 -42 97
c0 39 15 70 45 93c27 21 61 31 102 32v53c0 25 -12 51 -36 77c-20 21 -44 38 -71 51v8c7 0 23 2 30 2c29 0 54 -8 77 -23v40c0 23 -12 46 -35 69c-21 19 -44 34 -69 43v6c13 4 27 6 40 6c18 0 39 -5 64 -14v98c0 51 -34 76 -101 77v8zM260 524v-404h45v424zM329 556v-120
c25 -21 51 -32 79 -33c32 0 62 12 90 36c-13 86 -50 129 -109 129c-22 1 -42 -3 -60 -12zM329 410v-127c27 18 54 27 79 28c29 0 60 -11 93 -34c4 33 6 59 6 76c0 18 -1 39 -4 64c-36 -24 -68 -36 -96 -36c-26 1 -52 10 -78 29zM329 259v-139h34c35 0 65 14 89 43
c21 25 36 55 43 92c-26 23 -54 34 -84 34c-25 0 -53 -10 -82 -30zM430 882l70 -26c-43 -57 -100 -105 -173 -144l-39 17c52 42 99 93 142 153z" />
    <glyph glyph-name="Thorn" unicode="&#xde;" horiz-adv-x="643" 
d="M18 592c35 35 73 52 112 52c35 -1 65 -12 89 -34c25 -23 37 -52 37 -87v-69l42 28v161h22v-145l106 77c49 -19 88 -46 119 -82c34 -39 51 -84 51 -133v-256l-144 -119c-49 21 -93 34 -132 39v-161c-8 1 -15 1 -20 1h-129c-9 0 -18 0 -25 -1v175c-39 -1 -80 -14 -125 -39
l-6 8c29 57 74 97 134 120c-21 53 -68 105 -141 157v4l138 92v134c0 49 -25 73 -76 73c-15 0 -32 -2 -52 -6v11zM146 357l-74 -47l74 -64v111zM256 -111h42v571l-42 -27v-544zM320 476v-122c19 -23 46 -34 83 -35c31 0 59 11 83 33c-1 35 -17 65 -48 91
c-29 25 -62 38 -98 40zM320 323v-106c25 15 52 23 83 24c27 0 55 -8 83 -24v107c-25 -16 -52 -24 -82 -24c-34 0 -62 8 -84 23zM320 195v-58c64 -11 119 -28 166 -51v104c-26 21 -55 32 -86 32c-30 -1 -57 -10 -80 -27z" />
    <glyph glyph-name="germandbls" unicode="&#xdf;" horiz-adv-x="470" 
d="M35 452h42v104c39 20 73 44 103 72l92 -23l-19 -72l-86 18v-194l148 113l45 -41c22 -19 39 -28 52 -28v-7l-104 -104c39 0 71 -10 94 -31c25 -21 37 -51 37 -90c0 -60 -32 -109 -97 -148c-16 -9 -40 -22 -71 -41c-20 -12 -30 -29 -31 -50c0 -25 12 -38 36 -39
c6 2 15 4 27 5c11 1 17 -5 17 -16s-10 -17 -31 -18c-37 1 -66 35 -67 72c4 27 16 49 36 66c13 11 31 28 55 49c21 23 33 50 36 83c0 59 -25 89 -76 89c-11 0 -24 -2 -39 -5l-35 -8l128 129l-66 64l-94 -68v-229l58 -37l23 20l13 -14l-86 -84c-47 43 -89 68 -125 77
c18 15 27 39 27 72v260h-50z" />
    <glyph glyph-name="agrave" unicode="&#xe0;" horiz-adv-x="373" 
d="M66 430l18 -1c37 -2 68 12 92 41l134 -50l26 21l6 -5c-22 -35 -33 -62 -33 -82v-255c0 -13 8 -24 23 -33l17 15l15 -16l-87 -76c-38 20 -57 57 -58 111l-124 -111h-9c-44 42 -66 86 -67 131c0 57 31 118 93 183zM89 414l40 -110l90 -51v109zM126 287
c-18 -30 -27 -61 -27 -94c0 -53 18 -96 53 -129l67 63v108zM150 690c43 -60 90 -111 142 -152l-39 -17c-73 39 -130 87 -173 144z" />
    <glyph glyph-name="aacute" unicode="&#xe1;" horiz-adv-x="373" 
d="M84 429c37 -2 68 12 92 41l134 -50l26 21l6 -5c-22 -35 -33 -62 -33 -82v-255c0 -13 8 -24 23 -33l17 15l15 -16l-87 -76c-38 20 -57 57 -58 111l-124 -111h-9c-44 42 -66 86 -67 131c0 57 31 118 93 183l-46 127zM89 414l40 -110l90 -51v109zM126 287
c-18 -30 -27 -61 -27 -94c0 -53 18 -96 53 -129l67 63v108zM267 690l70 -25c-43 -57 -100 -105 -173 -144l-39 17c52 41 99 92 142 152z" />
    <glyph glyph-name="acircumflex" unicode="&#xe2;" horiz-adv-x="373" 
d="M84 429c37 -2 68 12 92 41l134 -50l26 21l6 -5c-22 -35 -33 -62 -33 -82v-255c0 -13 8 -24 23 -33l17 15l15 -16l-87 -76c-38 20 -57 57 -58 111l-124 -111h-9c-44 42 -66 86 -67 131c0 57 31 118 93 183l-46 127zM89 414l40 -110l90 -51v109zM126 287
c-18 -30 -27 -61 -27 -94c0 -53 18 -96 53 -129l67 63v108zM83 521l-15 15c33 38 69 89 107 152h48c31 -55 66 -106 107 -152l-15 -15c-47 27 -85 60 -116 100c-34 -45 -73 -78 -116 -100z" />
    <glyph glyph-name="atilde" unicode="&#xe3;" horiz-adv-x="373" 
d="M84 429c37 -2 68 12 92 41l134 -50l26 21l6 -5c-22 -35 -33 -62 -33 -82v-255c0 -13 8 -24 23 -33l17 15l15 -16l-87 -76c-38 20 -57 57 -58 111l-124 -111h-9c-44 42 -66 86 -67 131c0 57 31 118 93 183l-46 127zM89 414l40 -110l90 -51v109zM126 287
c-18 -30 -27 -61 -27 -94c0 -53 18 -96 53 -129l67 63v108zM141 649c16 -1 40 -5 71 -13s55 -12 71 -13c11 -1 18 1 23 6c3 3 7 10 12 22l21 -6c-14 -31 -23 -50 -28 -57c-15 -20 -32 -29 -52 -28c-17 1 -41 5 -73 14s-56 13 -73 14c-13 1 -25 -9 -34 -30l-20 6
c12 29 22 48 29 58c14 19 32 28 53 27z" />
    <glyph glyph-name="adieresis" unicode="&#xe4;" horiz-adv-x="373" 
d="M84 429c37 -2 68 12 92 41l134 -50l26 21l6 -5c-22 -35 -33 -62 -33 -82v-255c0 -13 8 -24 23 -33l17 15l15 -16l-87 -76c-38 20 -57 57 -58 111l-124 -111h-9c-44 42 -66 86 -67 131c0 57 31 118 93 183l-46 127zM89 414l40 -110l90 -51v109zM126 287
c-18 -30 -27 -61 -27 -94c0 -53 18 -96 53 -129l67 63v108zM115 668l59 -64l-64 -61c-21 21 -40 42 -59 64zM282 668l59 -64l-64 -61c-21 21 -40 42 -59 64z" />
    <glyph glyph-name="aring" unicode="&#xe5;" horiz-adv-x="373" 
d="M84 429c37 -2 68 12 92 41l134 -50l26 21l6 -5c-22 -35 -33 -62 -33 -82v-255c0 -13 8 -24 23 -33l17 15l15 -16l-87 -76c-38 20 -57 57 -58 111l-124 -111h-9c-44 42 -66 86 -67 131c0 57 31 118 93 183l-46 127zM89 414l40 -110l90 -51v109zM126 287
c-18 -30 -27 -61 -27 -94c0 -53 18 -96 53 -129l67 63v108zM85 625c0 33 12 61 36 85s52 36 85 36s61 -12 85 -36c24 -23 36 -52 36 -85s-12 -61 -36 -85s-52 -36 -85 -36s-61 12 -85 36c-24 25 -36 53 -36 85zM133 625c0 -40 32 -71 73 -74c41 3 73 34 73 74s-33 74 -73 74
s-73 -34 -73 -74z" />
    <glyph glyph-name="ae" unicode="&#xe6;" horiz-adv-x="472" 
d="M66 430l18 -1c32 -3 72 16 92 41l104 -42c22 9 43 22 63 41l123 -134l-162 -134v-102l76 -36l60 44l15 -16c-31 -22 -76 -56 -136 -102c-33 21 -63 36 -90 45c-7 17 -10 39 -10 66l-124 -111h-9c-44 42 -66 85 -67 130c0 59 31 119 92 180zM88 415l40 -111l91 -51v112z
M126 287c-18 -30 -27 -61 -27 -94c0 -53 17 -95 52 -128l68 62v108zM304 397v-168l90 72z" />
    <glyph glyph-name="ccedilla" unicode="&#xe7;" horiz-adv-x="281" 
d="M49 390c46 18 84 45 115 80l99 -69l-42 -65l-82 56v-287l78 -40l41 33l13 -15l-117 -95c-5 7 -12 12 -23 17v-65c33 0 61 -6 83 -17c29 -14 43 -36 43 -67c0 -32 -19 -61 -58 -87l-161 28l19 48l122 -23c14 12 21 24 21 36c1 34 -33 51 -101 51l5 31v84
c-24 16 -52 27 -83 32c19 15 28 39 28 74v260z" />
    <glyph glyph-name="egrave" unicode="&#xe8;" horiz-adv-x="307" 
d="M49 390c39 16 82 43 129 80l125 -135l-164 -132v-104l76 -36l61 43l14 -15c-31 -22 -76 -56 -135 -102c-39 27 -84 45 -134 54c19 14 28 38 28 73v274zM134 399v-170l90 74zM113 690c43 -60 90 -111 142 -152l-39 -17c-73 39 -130 87 -173 144z" />
    <glyph glyph-name="eacute" unicode="&#xe9;" horiz-adv-x="307" 
d="M49 390c39 16 82 43 129 80l125 -135l-164 -132v-104l76 -36l61 43l14 -15c-31 -22 -76 -56 -135 -102c-39 27 -84 45 -134 54c19 14 28 38 28 73v274zM134 399v-170l90 74zM300 665c-43 -57 -100 -105 -173 -144l-39 17c52 41 99 92 142 152z" />
    <glyph glyph-name="ecircumflex" unicode="&#xea;" horiz-adv-x="307" 
d="M49 390c39 16 82 43 129 80l125 -135c-41 -31 -96 -76 -164 -133v-103l76 -36l61 43l14 -15c-31 -22 -76 -56 -135 -102c-39 27 -84 45 -134 54c19 14 28 38 28 73v274zM134 399v-170l90 74zM46 521l-15 15c32 36 68 87 107 152h48c31 -55 66 -106 107 -152l-15 -15
c-47 27 -85 60 -116 100c-34 -45 -73 -78 -116 -100z" />
    <glyph glyph-name="edieresis" unicode="&#xeb;" horiz-adv-x="307" 
d="M49 390c39 16 82 43 129 80l125 -135l-164 -132v-104l76 -36l61 43l14 -15c-31 -22 -76 -56 -135 -102c-39 27 -84 45 -134 54c19 14 28 38 28 73v274zM134 399v-170l90 74zM78 668l59 -64l-64 -61c-21 21 -40 42 -59 64zM245 668l59 -64l-64 -61c-21 21 -40 42 -59 64z
" />
    <glyph glyph-name="igrave" unicode="&#xec;" horiz-adv-x="207" 
d="M94 470l75 -71l-25 -29v-270c0 -14 8 -26 24 -35l16 15l15 -16l-88 -75c-41 17 -62 52 -62 107v275l-29 33zM48 690c43 -60 90 -111 142 -152l-39 -17c-73 39 -130 87 -171 144z" />
    <glyph glyph-name="iacute" unicode="&#xed;" horiz-adv-x="207" 
d="M94 470l75 -71l-25 -29v-270c0 -14 8 -26 24 -35l16 15l15 -16l-88 -75c-41 17 -62 52 -62 107v275l-29 33zM166 690l70 -25c-43 -57 -100 -105 -173 -144l-39 17c52 41 99 92 142 152z" />
    <glyph glyph-name="icircumflex" unicode="&#xee;" horiz-adv-x="207" 
d="M94 470l75 -71l-25 -29v-270c0 -14 8 -26 24 -35l16 15l15 -16l-88 -75c-41 17 -62 52 -62 107v275l-29 33zM-16 521l-15 15c31 37 66 87 105 152h48c31 -55 66 -106 107 -152l-15 -15c-47 27 -85 60 -116 100c-34 -44 -72 -77 -114 -100z" />
    <glyph glyph-name="idieresis" unicode="&#xef;" horiz-adv-x="207" 
d="M94 470l75 -71l-25 -29v-270c0 -14 8 -26 24 -35l16 15l15 -16l-88 -75c-41 17 -62 52 -62 107v275l-29 33zM-47 607l61 61l59 -64l-64 -61c-12 15 -31 36 -56 64zM117 607l64 61l59 -64l-64 -61z" />
    <glyph glyph-name="eth" unicode="&#xf0;" horiz-adv-x="383" 
d="M31 577l71 36c40 -19 73 -39 99 -60l105 44l23 -23l-100 -44c69 -58 103 -129 103 -213v-253c-58 -19 -104 -44 -139 -75c-53 39 -110 65 -171 78c18 15 27 42 27 79v230c49 15 99 36 151 64c-14 21 -31 40 -51 57l-98 -41l-22 23l93 40zM140 111l102 -41v244
c0 35 -8 68 -24 100l-78 -39v-264z" />
    <glyph glyph-name="ntilde" unicode="&#xf1;" horiz-adv-x="401" 
d="M6 391l78 79c41 -23 62 -59 61 -109c27 21 68 55 121 104l62 -66l39 38l14 -15c-10 -14 -24 -36 -41 -66v-254c0 -15 8 -28 24 -37l16 15l15 -16l-86 -75c-39 19 -59 55 -59 108v251l-40 39l-65 -51v-249l26 -33l-71 -66l-74 67l29 30v265c0 15 -6 28 -18 39l-17 -14z
M147 649c16 -1 40 -5 71 -13s55 -12 71 -13c11 -1 18 1 23 6c3 3 7 10 12 22l21 -6c-13 -31 -23 -50 -28 -57c-15 -20 -32 -29 -52 -28c-16 1 -40 5 -72 14s-57 13 -74 14c-13 1 -24 -9 -34 -30l-20 6c13 30 22 49 29 58c14 19 32 28 53 27z" />
    <glyph glyph-name="ograve" unicode="&#xf2;" horiz-adv-x="384" 
d="M49 387c52 13 97 40 135 83c48 -38 98 -63 149 -74v-333c-56 -17 -102 -41 -139 -74c-47 35 -104 61 -173 78c19 12 28 41 28 87v233zM139 387v-276l104 -42v272zM139 690c43 -61 91 -111 142 -152l-39 -17c-73 39 -130 87 -173 144z" />
    <glyph glyph-name="oacute" unicode="&#xf3;" horiz-adv-x="384" 
d="M49 387c52 13 97 40 135 83c48 -38 98 -63 149 -74v-333c-56 -17 -102 -41 -139 -74c-47 35 -104 61 -173 78c19 12 28 41 28 87v233zM139 387v-276l104 -42v272zM256 690l70 -25c-43 -57 -100 -105 -173 -144l-39 17c52 41 99 92 142 152z" />
    <glyph glyph-name="ocircumflex" unicode="&#xf4;" horiz-adv-x="384" 
d="M49 387c52 13 97 40 135 83c48 -38 98 -63 149 -74v-333c-56 -17 -102 -41 -139 -74c-47 35 -104 61 -173 78c19 12 28 41 28 87v233zM139 387v-276l104 -42v272zM72 521l-15 15c31 35 67 85 107 152h48c29 -53 65 -103 107 -152l-15 -15c-47 27 -86 60 -116 100
c-33 -44 -72 -77 -116 -100z" />
    <glyph glyph-name="otilde" unicode="&#xf5;" horiz-adv-x="384" 
d="M49 154v233c52 13 97 40 135 83c48 -38 98 -63 149 -74v-333c-56 -17 -102 -41 -139 -74c-47 35 -104 61 -173 78c19 12 28 41 28 87zM139 387v-276l104 -42v272zM48 564c13 30 22 49 29 58c14 19 32 28 53 27c16 -1 40 -5 71 -13s55 -12 71 -13c11 -1 18 1 23 6
c3 3 7 10 12 22l21 -6c-13 -31 -23 -50 -28 -57c-15 -20 -32 -29 -52 -28c-16 1 -40 5 -73 14c-32 9 -56 13 -73 14c-13 1 -24 -9 -34 -30z" />
    <glyph glyph-name="odieresis" unicode="&#xf6;" horiz-adv-x="384" 
d="M49 387c52 13 97 40 135 83c48 -38 98 -63 149 -74v-333c-56 -17 -102 -41 -139 -74c-47 35 -104 61 -173 78c19 12 28 41 28 87v233zM139 387v-276l104 -42v272zM104 668l59 -64l-64 -61c-21 21 -40 42 -59 64zM271 668l59 -64l-64 -61c-21 21 -40 42 -59 64z" />
    <glyph glyph-name="divide" unicode="&#xf7;" horiz-adv-x="830" 
d="M414 415c-32 0 -59 27 -59 60c0 32 27 61 59 61c35 0 61 -28 61 -61c0 -36 -26 -60 -61 -60zM124 329h582v-67h-582v67zM355 115c0 32 27 60 59 60c35 0 61 -25 61 -60s-26 -60 -61 -60c-32 0 -59 27 -59 60z" />
    <glyph glyph-name="oslash" unicode="&#xf8;" horiz-adv-x="384" 
d="M49 386c52 13 97 41 135 84l35 -25l21 81h40l-25 -103c27 -15 53 -24 78 -28v-332c-57 -17 -103 -42 -140 -75l-39 27l-22 -91h-41l27 109c-33 17 -65 29 -97 34c19 11 28 39 28 86v233zM136 391v-283l10 -4l58 257zM247 65v281l-15 5l-58 -257z" />
    <glyph glyph-name="ugrave" unicode="&#xf9;" horiz-adv-x="397" 
d="M100 470l73 -63l-28 -29v-262c0 -21 11 -37 32 -50l73 59v250l-26 33l70 62l74 -63l-28 -29v-277c0 -13 8 -25 24 -36l17 14l14 -16l-87 -75c-39 21 -58 57 -58 108l-133 -107c-19 11 -34 27 -45 50c-11 21 -17 43 -17 66v270l-15 16l-20 -17l-15 16zM84 665l70 25
c43 -60 90 -111 142 -152l-39 -17c-73 39 -130 87 -173 144z" />
    <glyph glyph-name="uacute" unicode="&#xfa;" horiz-adv-x="397" 
d="M5 390l95 80l73 -63l-28 -29v-262c0 -21 11 -37 32 -50l73 59v250l-26 33l70 62l74 -63l-28 -29v-277c0 -13 8 -25 24 -36l17 14l14 -16l-87 -75c-39 21 -58 57 -58 108l-133 -107c-19 11 -34 27 -45 50c-11 21 -17 43 -17 66v270l-15 16l-20 -17zM271 690l70 -25
c-43 -57 -100 -105 -173 -144l-39 17c52 41 99 92 142 152z" />
    <glyph glyph-name="ucircumflex" unicode="&#xfb;" horiz-adv-x="397" 
d="M5 390l95 80l73 -63l-28 -29v-262c0 -21 11 -37 32 -50l73 59v250l-26 33l70 62l74 -63l-28 -29v-277c0 -13 8 -25 24 -36l17 14l14 -16l-87 -75c-39 21 -58 57 -58 108l-133 -107c-19 11 -34 27 -45 50c-11 21 -17 43 -17 66v270l-15 16l-20 -17zM87 521l-15 15
c32 36 68 87 107 152h48c31 -55 66 -106 107 -152l-15 -15c-47 27 -85 60 -116 100c-34 -45 -73 -78 -116 -100z" />
    <glyph glyph-name="udieresis" unicode="&#xfc;" horiz-adv-x="397" 
d="M5 390l95 80l73 -63l-28 -29v-262c0 -21 11 -37 32 -50l73 59v250l-26 33l70 62l74 -63l-28 -29v-277c0 -13 8 -25 24 -36l17 14l14 -16l-87 -75c-39 21 -58 57 -58 108l-133 -107c-19 11 -34 27 -45 50c-11 21 -17 43 -17 66v270l-15 16l-20 -17zM55 607l64 61l59 -64
l-64 -61zM222 607l64 61l59 -64l-64 -61z" />
    <glyph glyph-name="yacute" unicode="&#xfd;" horiz-adv-x="390" 
d="M116 470c42 -24 62 -61 60 -112l124 108c41 -44 61 -97 60 -158c-1 -65 -24 -119 -69 -162c-31 -29 -87 -67 -166 -114c-59 -34 -88 -66 -88 -96c0 -31 23 -48 70 -50c23 1 42 9 58 22s28 19 35 20c11 0 17 -5 16 -17c-1 -17 -15 -30 -43 -39c-20 -7 -41 -10 -62 -10
c-26 0 -49 5 -68 15c-24 13 -35 31 -34 55c1 20 12 44 31 73c30 47 45 70 45 71v269c0 17 -6 32 -19 45l-28 -27l-16 16zM175 331v-245c67 48 100 110 100 185c1 47 -12 84 -39 111zM264 690l69 -25c-42 -57 -99 -105 -172 -144l-39 17c52 41 99 92 142 152z" />
    <glyph glyph-name="thorn" unicode="&#xfe;" horiz-adv-x="390" 
d="M34 610c27 -5 49 -15 65 -32h7c28 33 59 49 93 50l2 -3c-30 -26 -45 -56 -45 -89v-169c33 27 65 61 95 103c36 -11 63 -37 82 -76c10 -23 15 -47 15 -74v-233c-31 -17 -70 -49 -115 -94c-24 14 -50 26 -77 37v-67c0 -25 16 -58 47 -101c-33 0 -67 21 -102 62
c-27 -27 -52 -40 -75 -41c27 31 40 58 40 83v578c0 20 -11 41 -34 62zM156 333v-225c27 -6 61 -17 102 -34v256c0 20 -27 49 -47 57z" />
    <glyph glyph-name="ydieresis" unicode="&#xff;" horiz-adv-x="390" 
d="M116 470c42 -24 62 -61 60 -112l124 108c41 -44 61 -97 60 -158c-1 -65 -24 -119 -69 -162c-31 -29 -87 -67 -166 -114c-59 -34 -88 -66 -88 -96c0 -31 23 -48 70 -50c23 1 42 9 58 22s28 19 35 20c11 0 17 -5 16 -17c-1 -17 -15 -30 -43 -39c-20 -7 -41 -10 -62 -10
c-26 0 -49 5 -68 15c-24 13 -35 31 -34 55c1 20 12 44 31 73c30 47 45 70 45 71v269c0 17 -6 32 -19 45l-28 -27l-16 16zM236 382l-61 -51v-245c67 48 100 110 100 185c1 47 -12 84 -39 111zM47 607l64 61l59 -64l-64 -61c-21 21 -40 42 -59 64zM214 607l64 61l59 -64
l-64 -61c-21 21 -40 42 -59 64z" />
    <glyph glyph-name="longs" unicode="&#x17f;" horiz-adv-x="286" 
d="M167 111l66 -45l33 32l13 -15l-97 -94c-33 32 -78 58 -137 78c19 15 28 40 28 76v256h-50l8 53h42v104c29 14 64 38 103 72l92 -23l-20 -72l-81 20v-442z" />
    <glyph glyph-name="increment" unicode="&#x2206;" horiz-adv-x="696" 
d="M358 699l318 -699h-652l318 699h16zM316 537l-220 -493h442z" />
    <glyph glyph-name="Sigma" unicode="&#x3a3;" horiz-adv-x="658" 
d="M426 678h-262l292 -307v-16l-290 -247h318h37c16 2 26 8 30 17l27 78h38l-82 -271h-38c11 31 16 51 16 59c1 6 -6 9 -21 9h-480v21l349 298l-349 367v27h423c25 0 37 5 36 16c0 2 -3 17 -8 45h36l61 -194h-37c-15 43 -29 71 -42 83c-10 10 -28 15 -54 15z" />
    <glyph glyph-name="Omega" unicode="&#x3a9;" horiz-adv-x="763" 
d="M567 422c-2 177 -64 266 -186 266c-121 0 -183 -89 -185 -266c-2 -131 38 -272 120 -422h-246l-57 187h29l29 -90h151v13c-99 107 -149 212 -149 316c1 86 31 158 91 215c58 56 130 84 217 84s160 -28 219 -84s89 -128 90 -215c1 -33 -4 -66 -15 -99
c-19 -61 -64 -133 -135 -217v-13h151l29 90h29l-57 -187h-245c81 143 121 284 120 422z" />
    <glyph glyph-name="Omega" unicode="&#x2126;" horiz-adv-x="763" 
d="M567 422c-2 177 -64 266 -186 266c-121 0 -183 -89 -185 -266c-2 -131 38 -272 120 -422h-246l-57 187h29l29 -90h151v13c-99 107 -149 212 -149 316c1 86 31 158 91 215c58 56 130 84 217 84s160 -28 219 -84s89 -128 90 -215c1 -33 -4 -66 -15 -99
c-19 -61 -64 -133 -135 -217v-13h151l29 90h29l-57 -187h-245c81 143 121 284 120 422z" />
    <glyph glyph-name="pi" unicode="&#x3c0;" horiz-adv-x="676" 
d="M17 237c10 59 26 104 48 133c28 39 69 59 123 59h478l-21 -96h-165c-9 -41 -15 -82 -16 -124l-4 -113c-3 -77 -22 -116 -58 -116c-27 0 -41 16 -41 47c0 27 10 64 30 113c26 64 47 128 62 193h-190c-10 -44 -16 -87 -17 -128l-3 -114c-3 -74 -22 -111 -58 -111
c-27 0 -41 16 -41 49c0 23 10 59 29 108c25 65 45 130 62 196h-90c-32 0 -56 -8 -71 -24c-13 -15 -23 -39 -29 -72h-28z" />
    <glyph glyph-name="DST" unicode="&#x20a7;" horiz-adv-x="1454" 
d="M1390 562c0 37 -28 72 -65 72h-148c-25 0 -37 12 -37 35v131h-57v-131c0 -59 39 -88 116 -88c11 0 26 1 47 2s37 2 48 2c27 0 41 -6 41 -19c0 -14 -13 -21 -40 -21c-11 0 -27 1 -49 2c-21 2 -37 3 -48 3c-77 0 -115 -32 -115 -96v-322c0 -47 24 -75 72 -86v56
c-13 8 -19 22 -19 42v302c0 30 12 45 35 45h146c39 0 73 32 73 71zM1003 136v94c0 28 -9 50 -27 65c-17 15 -40 23 -69 23h-246c-27 0 -41 12 -41 37v95c0 29 14 43 41 43h244c16 0 30 -7 43 -21h50c-9 51 -38 76 -89 76h-246c-60 0 -98 -42 -98 -102v-89
c0 -55 39 -92 92 -92h250c30 0 45 -15 45 -45v-76c0 -30 -20 -45 -61 -45h-250c-15 0 -22 7 -22 21c0 12 7 18 20 18h270v53h-279c-39 0 -65 -33 -65 -73s30 -70 70 -70h282c52 0 86 36 86 88zM495 116l1 684h-56l2 -682c0 -8 -10 -21 -18 -21c-13 0 -19 7 -19 21v151
c0 30 -10 55 -31 75l-179 177c-13 13 -31 19 -52 19s-39 -6 -56 -18c-17 -13 -26 -30 -26 -50v-330c0 -64 29 -96 88 -96h82c42 0 68 24 77 72h-53c-8 -10 -16 -17 -25 -21h-81c-23 0 -35 14 -35 43v310c0 7 3 18 8 32c5 4 11 6 17 6c9 0 18 -5 27 -14l95 -93
c57 -56 86 -87 87 -93c1 -12 2 -68 2 -169c0 -41 31 -77 72 -77c40 0 73 34 73 74zM11 -40v840h1404v-840h-1404z" />
    <glyph glyph-name="partialdiff" unicode="&#x2202;" 
d="M202 526c-24 0 -36 10 -36 31c1 23 12 41 35 54c19 11 40 17 65 17c60 1 105 -30 135 -92c23 -47 35 -104 35 -171c0 -87 -16 -166 -47 -237c-41 -91 -100 -138 -175 -139c-46 -1 -83 16 -111 53c-25 34 -37 75 -37 123c0 57 15 105 44 144c33 43 77 65 132 66
s94 -30 116 -92c9 35 14 84 14 148c0 111 -21 166 -64 166c-13 -3 -29 -15 -49 -36s-39 -32 -57 -35zM256 347c-43 0 -76 -29 -97 -86c-15 -41 -23 -87 -23 -138c0 -32 6 -58 18 -79c15 -27 37 -39 66 -38c45 2 78 30 99 85c15 39 23 86 23 139c0 31 -6 58 -19 79
c-15 25 -38 38 -67 38z" />
    <glyph glyph-name="product" unicode="&#x220f;" horiz-adv-x="830" 
d="M32 756h764v-40h-88v-911h88v-40h-262v40h82v911h-404v-911h82v-40h-262v40h88v911h-88v40z" />
    <glyph glyph-name="radical" unicode="&#x221a;" horiz-adv-x="635" 
d="M634 805v-47h-56l-289 -777h-32l-155 427l-61 -22l-11 38l136 48l125 -347l251 680h92z" />
    <glyph glyph-name="infinity" unicode="&#x221e;" horiz-adv-x="830" 
d="M255 484c58 1 110 -42 155 -129c41 88 93 132 158 131c47 0 86 -21 115 -62c26 -37 39 -80 39 -130c1 -49 -11 -92 -34 -127c-27 -40 -64 -60 -111 -60c-59 0 -111 42 -157 127c-43 -85 -95 -128 -157 -129c-48 -1 -87 20 -116 63c-25 38 -38 82 -39 132s11 92 35 126
c27 39 65 58 112 58zM143 292c0 -31 9 -58 27 -80c19 -23 44 -35 74 -36c33 0 63 17 89 50c15 19 33 50 53 94c-33 61 -75 90 -128 89c-68 -3 -115 -50 -115 -117zM445 271c34 -60 77 -89 129 -88c68 1 113 50 113 117c1 31 -8 58 -26 79c-19 23 -44 35 -74 36
c-33 1 -62 -16 -89 -50c-16 -20 -34 -51 -53 -94z" />
    <glyph glyph-name="integral" unicode="&#x222b;" 
d="M350 701c-42 -7 -62 -146 -60 -416c2 -307 -60 -461 -186 -464c-23 -1 -42 5 -57 16c-17 13 -25 30 -25 52c0 33 16 48 48 46c21 -1 36 -12 43 -31c8 -19 18 -30 31 -33c31 4 50 68 58 191c2 39 3 113 2 224s8 204 25 277c30 123 84 185 161 187c23 1 42 -4 57 -15
c17 -13 25 -30 25 -52c1 -29 -15 -44 -48 -44c-21 2 -35 12 -43 31c-7 19 -18 29 -31 31z" />
    <glyph glyph-name="approxequal" unicode="&#x2248;" horiz-adv-x="830" 
d="M277 272c33 1 69 -6 108 -19c23 -8 57 -20 104 -35c23 -8 47 -12 70 -11c55 1 117 26 184 75v-74c-68 -47 -130 -70 -186 -69c-31 0 -77 11 -138 33c-60 22 -106 33 -138 33c-59 -1 -123 -27 -194 -78v76c65 45 128 68 190 69zM277 452c42 0 90 -11 143 -32
c58 -23 103 -35 136 -34c57 1 120 25 187 74v-73c-62 -47 -124 -71 -186 -70c-31 1 -77 12 -138 34c-60 22 -106 33 -138 32c-59 -1 -123 -26 -194 -76v74c65 47 129 70 190 71z" />
    <glyph glyph-name="notequal" unicode="&#x2260;" horiz-adv-x="830" 
d="M402 230h302v-63h-344l-120 -154l-52 40l92 114h-156v63h196l102 128h-298v64h342l120 155l48 -38l-88 -117h158v-64h-202z" />
    <glyph glyph-name="equivalence" unicode="&#x2261;" horiz-adv-x="308" 
d="M0 643h54l253 -735h-54z" />
    <glyph glyph-name="lessequal" unicode="&#x2264;" horiz-adv-x="831" 
d="M703 584v-70l-458 -151l458 -150v-70l-575 191v59zM703 77v-68h-575v68h575z" />
    <glyph glyph-name="greaterequal" unicode="&#x2265;" horiz-adv-x="830" 
d="M127 584l575 -191v-59l-575 -191v70l458 150l-458 151v70zM127 77h575v-68h-575v68z" />
    <glyph glyph-name="lozenge" unicode="&#x25ca;" horiz-adv-x="996" 
d="M212 329l282 359l288 -357l-288 -358zM496 601l-214 -270l214 -270l218 270z" />
    <glyph glyph-name="smallbullet" horiz-adv-x="230" 
d="M115 373c36 0 66 -31 66 -66c0 -36 -30 -66 -66 -66s-66 30 -66 66c0 35 30 66 66 66z" />
  </font>
</defs>
</svg>
